<svg width="120" height="120" viewBox="0 0 120 120" fill="none" xmlns="http://www.w3.org/2000/svg">
<circle cx="60" cy="60" r="60" fill="#607989"/>
<path d="M65.5779 64.8941L59.6682 61.358C59.3971 61.1953 59.0477 61.3098 58.9272 61.5989L53.0959 75.0387C53.0116 75.2314 52.8248 75.3519 52.614 75.3519L31.4453 75.1411C31.1622 75.1411 30.9333 75.358 30.9212 75.6411L30.8971 76.1893C30.8851 76.4483 31.0718 76.6833 31.3309 76.7254L56.7224 80.9724C56.9393 81.0086 57.1562 80.9061 57.2586 80.7134L65.7706 65.5989C65.9092 65.3519 65.8248 65.0447 65.5839 64.9001L65.5779 64.8941Z" fill="white"/>
<path d="M76.2706 60.7857C76.114 60.5266 75.7706 60.4242 75.4935 60.5628L69.9152 63.3278C69.608 63.4784 69.5116 63.858 69.7164 64.129L77.6682 74.8037C77.8007 74.9845 77.8128 75.2254 77.6923 75.4122L72.9574 83.7977C72.7947 84.0507 72.873 84.3821 73.1321 84.5447L73.4272 84.7315C73.6682 84.8881 73.9935 84.8459 74.1863 84.6411L84.2345 74.9242C84.3911 74.7495 84.4152 74.4965 84.2947 74.2977L76.2706 60.7796V60.7857Z" fill="white"/>
<path d="M36.3068 46.5748C36.4634 46.629 36.6321 46.5989 36.7646 46.5086L44.5538 41.0507C44.6622 40.9784 44.7887 40.9423 44.9212 40.9604L60.9875 43.0628C61.2646 43.0989 61.5236 42.9062 61.5658 42.629L62.5116 36.629C62.5598 36.3098 62.3068 36.0206 61.9875 36.0266L43.5236 36.4965C43.3911 36.4965 43.2586 36.5568 43.1682 36.6531L34.7164 45.2736C34.4453 45.5507 34.5598 46.0086 34.9272 46.129L36.3068 46.5808V46.5748Z" fill="white"/>
<path d="M102.078 59.3218C101.903 58.9845 101.584 58.7435 101.204 58.6833L92.4272 57.1893C92.1321 57.1411 91.861 56.9784 91.6742 56.7375L82.3007 44.6893C81.8971 44.1712 81.1562 44.0688 80.6321 44.4604L76.9453 47.1772C76.3369 47.623 76.2827 48.5146 76.8369 49.0327L89.4935 60.9242C89.7224 61.1411 90.0236 61.2555 90.3369 61.2495L101.024 61.0869C101.921 61.0748 102.487 60.123 102.078 59.3278V59.3218Z" fill="white"/>
<path d="M81.3429 32.9242C81.7525 29.4784 79.2887 26.358 75.8489 25.9483C72.4031 25.5387 69.2827 28.0025 68.873 31.4423C68.4634 34.8881 70.9272 38.0086 74.367 38.4182C77.8128 38.8278 80.9333 36.364 81.3429 32.9242Z" fill="white"/>
<path d="M69.4574 95.9001C69.4574 95.9001 69.4333 95.9001 69.4152 95.9001C66.3309 95.7134 64.614 93.3339 64.5417 93.2314C63.5778 91.8881 63.3068 90.4604 63.7646 89.1049C64.4393 87.1049 66.7044 85.3339 69.8188 84.376C73.4935 83.2435 74.9453 77.1833 74.9574 77.123C75.0357 76.7796 75.3851 76.5628 75.7285 76.6411C76.0718 76.7194 76.2887 77.0688 76.2104 77.4122C76.1441 77.6893 74.5658 84.2556 70.1923 85.6049C67.5116 86.4303 65.5116 87.9302 64.9754 89.5146C64.6562 90.4724 64.855 91.4664 65.5839 92.4784C65.5959 92.4965 67.0357 94.4543 69.4875 94.6049C69.8429 94.6291 70.114 94.9302 70.0899 95.2857C70.0718 95.629 69.7887 95.8881 69.4513 95.8881L69.4574 95.9001Z" fill="white"/>
<path d="M20.4935 78.3821C20.2586 78.3821 20.0297 78.2495 19.9152 78.0206C18.5598 75.2495 19.7766 72.5808 19.8309 72.4664C20.5297 70.9664 21.6381 70.0266 23.0357 69.7555C25.108 69.358 27.7646 70.4543 30.1381 72.6893C32.9333 75.3278 38.9212 73.6049 38.9815 73.5869C39.3188 73.4905 39.6803 73.6833 39.7827 74.0206C39.8851 74.364 39.6863 74.7194 39.3489 74.8218C39.0718 74.9001 32.5839 76.7676 29.2586 73.629C27.2164 71.7013 24.9273 70.7074 23.2827 71.0206C22.2947 71.2134 21.5236 71.8821 20.9995 73.0086C20.9875 73.0327 19.9935 75.2435 21.0718 77.4543C21.2285 77.7736 21.0959 78.1592 20.7766 78.3158C20.6863 78.358 20.5899 78.3821 20.4935 78.3821Z" fill="white"/>
</svg>
