<svg width="120" height="120" viewBox="0 0 120 120" fill="none" xmlns="http://www.w3.org/2000/svg">
<circle cx="60" cy="60" r="60" fill="#607989"/>
<path d="M97.7552 35.9232H82.2314L81.2875 34.958C81.1115 34.7766 80.8235 34.7766 80.6475 34.958L80.0769 35.5286C79.9703 35.6352 79.9276 35.7845 79.9543 35.9232H21.448C21.1973 35.9232 21 36.1258 21 36.3711V37.0111C21 37.2617 21.2026 37.459 21.448 37.459H81.4635L86.455 42.1413L81.6021 48.6366C81.5328 48.7273 81.4368 48.7859 81.3248 48.8073L67.5341 51.431C67.2942 51.479 67.1342 51.703 67.1715 51.9483L68.0194 57.1425C68.0674 57.4198 68.3501 57.5904 68.6167 57.4944L83.6872 52.1083C83.7992 52.071 83.8899 51.9856 83.9379 51.8843L88.0175 43.6024L89.308 44.813C89.4893 44.9836 89.7826 44.973 89.948 44.7863L90.1133 44.5997C90.2733 44.4237 90.2679 44.1517 90.1026 43.9811L88.5828 42.4239C88.6628 42.1466 88.4601 41.8479 88.1508 41.8479H88.0175L83.7299 37.4537H97.7499C98.0005 37.4537 98.1978 37.2511 98.1978 37.0058V36.3658C98.1978 36.1152 97.9952 35.9179 97.7499 35.9179L97.7552 35.9232Z" fill="white"/>
<path d="M97.7605 64.5017H21.448C21.2006 64.5017 21 64.7023 21 64.9497V65.595C21 65.8424 21.2006 66.0429 21.448 66.0429H97.7605C98.0079 66.0429 98.2085 65.8424 98.2085 65.595V64.9497C98.2085 64.7023 98.0079 64.5017 97.7605 64.5017Z" fill="white"/>
<path d="M55.9033 71.4024L50.0425 70.2718C49.7759 70.2185 49.5252 70.4158 49.5092 70.6878L48.736 83.3532C48.7253 83.5346 48.608 83.6892 48.4373 83.7532L31.1377 89.8486C30.9084 89.9286 30.7857 90.1792 30.8604 90.4086L31.0044 90.8618C31.0737 91.0805 31.2923 91.2085 31.5163 91.1711L53.4502 87.1182C53.6368 87.0862 53.7808 86.9369 53.8128 86.7502L56.2712 71.9197C56.3086 71.6797 56.1539 71.4504 55.9139 71.4024H55.9033Z" fill="white"/>
<path d="M65.8436 68.464C65.6997 68.2667 65.4277 68.2187 65.225 68.3574L61.1668 71.1464C60.9428 71.3011 60.9055 71.6157 61.0868 71.8184L68.2061 79.7429C68.3287 79.8762 68.3554 80.0736 68.2807 80.2335L61.7054 94.2322C61.604 94.4508 61.6894 94.7121 61.908 94.8241L62.1533 94.9521C62.356 95.0534 62.6013 94.9894 62.7293 94.8028L73.2882 79.2096C73.3949 79.055 73.3896 78.847 73.2776 78.6924L65.8383 68.4587L65.8436 68.464Z" fill="white"/>
<path d="M30.5617 60.3261C30.7004 60.3528 30.8444 60.3155 30.951 60.2195L37.0998 54.7267C37.1851 54.652 37.2917 54.6094 37.4037 54.6147L51.445 54.7854C51.6903 54.7854 51.893 54.5987 51.8983 54.3534L52.101 49.0899C52.1116 48.8073 51.8663 48.5886 51.589 48.626L35.7506 50.9137C35.6332 50.9297 35.5319 50.9937 35.4573 51.0844L29.0632 59.3609C28.8606 59.6276 29.0046 60.0115 29.3299 60.0755L30.5617 60.3261Z" fill="white"/>
<path d="M62.4786 49.4259C65.4828 49.4259 67.9181 46.9905 67.9181 43.9864C67.9181 40.9823 65.4828 38.5469 62.4786 38.5469C59.4745 38.5469 57.0392 40.9823 57.0392 43.9864C57.0392 46.9905 59.4745 49.4259 62.4786 49.4259Z" fill="white"/>
<path d="M75.2774 34.9739C75.4534 34.9846 75.6294 34.9793 75.8 34.9739C76.8559 34.91 77.8265 34.494 78.5304 33.7954C79.3517 32.9848 79.7943 31.7956 79.7463 30.537C79.693 29.1292 79.037 27.7906 77.9438 26.8627C75.5867 24.8629 72.3283 24.3243 70.6538 25.9828C68.942 27.6733 69.5926 30.7237 71.6084 33.1341C72.531 34.238 73.8695 34.91 75.2774 34.9739ZM71.9444 27.14C72.403 26.6868 72.9949 26.4414 73.6562 26.4041C74.7388 26.3348 76.0027 26.8094 77.1545 27.7906C77.9918 28.4999 78.4931 29.5185 78.5304 30.585C78.5677 31.5023 78.2531 32.3609 77.6718 32.9368C77.0959 33.5074 76.2373 33.8114 75.3254 33.7687C74.2588 33.7207 73.2403 33.2035 72.531 32.3609C70.9418 30.4624 70.7018 28.3666 71.939 27.1454L71.9444 27.14Z" fill="white"/>
</svg>
