<svg width="120" height="120" viewBox="0 0 120 120" fill="none" xmlns="http://www.w3.org/2000/svg">
<circle cx="60" cy="60" r="60" fill="#607989"/>
<path d="M55.7757 57.1743L63.6614 50.9038C63.7488 50.8369 63.8209 50.7495 63.8723 50.6517L69.1449 40.7341C69.3867 40.2763 69.1449 39.7156 68.6459 39.5767L68.2087 39.4584C67.9052 39.3761 67.576 39.4739 67.3754 39.7208L59.896 48.7022C59.8343 48.7742 59.7623 48.8359 59.68 48.8822L52.1646 53.2546C51.7582 53.4912 51.6399 54.0262 51.9074 54.412L53.61 56.8554C54.1039 57.5653 55.0967 57.7093 55.7757 57.1743Z" fill="white"/>
<path d="M70.3692 45.7855L61.2694 52.7762C60.9402 53.0283 60.9042 53.5118 61.1974 53.8102L64.1295 56.7988C64.4124 57.0869 64.8754 57.0714 65.1429 56.7731L73.3064 47.6117C73.3733 47.5396 73.4195 47.4522 73.4504 47.3596L73.7951 38.1621C73.8774 37.9049 73.7951 37.622 73.5996 37.442C73.2652 37.1385 72.7354 37.2311 72.5245 37.6272L70.5595 45.5592C70.5132 45.6466 70.4463 45.7238 70.3692 45.7804V45.7855Z" fill="white"/>
<path d="M51.3467 40.0448C48.4455 40.0448 46.0895 42.3956 46.0895 45.302C46.0895 48.2084 48.4403 50.5592 51.3467 50.5592C54.253 50.5592 56.6038 48.2084 56.6038 45.302C56.6038 42.3956 54.253 40.0448 51.3467 40.0448Z" fill="white"/>
<path d="M74.0214 36.0222C76.6757 34.9883 78.1674 32.0974 77.4782 29.3351C76.6448 25.9915 73.0646 24.1396 69.8548 25.3948C67.2005 26.4287 65.7087 29.3196 66.398 32.082C67.2313 35.4255 70.8115 37.2774 74.0214 36.0222ZM71.0687 26.7785C72.9514 26.3567 74.8959 27.3649 75.6418 29.1447C76.614 31.4647 75.256 34.0933 72.8023 34.6437C70.9196 35.0655 68.9751 34.0572 68.2293 32.2774C67.2571 29.9575 68.6151 27.3289 71.0687 26.7785Z" fill="white"/>
<path d="M62.2057 72.74C62.2674 72.8892 62.3651 73.0332 62.5091 73.1413L62.5246 73.1567L65.4206 75.384L73.363 81.5054C73.6665 81.7317 73.7951 82.1175 73.7025 82.4827L71.151 92.5701C71.0276 93.0485 71.2951 93.5372 71.7632 93.6966C71.8609 93.7275 71.9587 93.7429 72.0564 93.7429C72.4319 93.7429 72.7817 93.5218 72.9309 93.1617L78.4298 79.921C78.5893 79.5352 78.4761 79.0877 78.152 78.8305L66.3106 69.129C65.9402 68.8255 65.4052 68.8512 65.0554 69.1753L64.3147 69.8954L62.9155 71.2483L62.4268 71.7267C62.1388 72.0044 62.0719 72.416 62.2057 72.7452V72.74Z" fill="white"/>
<path d="M60.5904 71.0991C61.1871 71.5775 61.7324 72.1279 62.2057 72.74C62.2674 72.8892 62.3651 73.0332 62.5091 73.1413L62.5246 73.1567C63.6151 74.6536 64.3661 76.4643 64.6953 78.4396L66.3723 80.2811L68.471 82.5959C68.7128 82.8583 68.7797 83.2441 68.6459 83.5836L64.5513 93.6864C64.3713 94.1236 64.5513 94.6329 64.968 94.8643L65.004 94.8798C65.4361 95.1215 65.9813 94.9878 66.2488 94.5763L74.0986 82.5753C74.3249 82.2256 74.294 81.7729 74.0317 81.4591L64.3147 69.8903L64.1861 69.7308C63.8826 69.3604 63.3476 69.2833 62.9464 69.5508L61.9022 70.2401L60.5853 71.0991H60.5904Z" fill="white"/>
<path d="M42.1801 79.3501C42.7408 75.7287 44.5 72.5086 47.1389 70.2915C49.8138 68.0384 53.0545 67.0714 56.2849 67.5703C58.4248 67.9047 60.3332 68.846 61.9073 70.2401C62.2622 70.5487 62.6017 70.8882 62.9207 71.2431C63.9803 72.4211 64.8342 73.8254 65.4206 75.384C66.0019 76.9015 66.3363 78.5579 66.3723 80.2811C66.4031 81.1865 66.3414 82.1124 66.1974 83.0383C65.647 86.6597 63.8826 89.8798 61.2386 92.1072C59.0318 93.9641 56.4187 94.9466 53.7592 94.9466C53.2088 94.9466 52.6584 94.9003 52.0977 94.818C46.1821 93.9127 42.0001 88.2646 42.0001 81.7163C42.0001 80.9396 42.0618 80.1525 42.1801 79.3501ZM52.3292 93.3314C55.1121 93.7532 57.9361 92.9096 60.2664 90.9498C62.6326 88.9642 64.2015 86.0681 64.7108 82.812C64.9474 81.3099 64.9217 79.8285 64.6953 78.4344C64.3713 76.4643 63.6151 74.6485 62.5246 73.1516C62.4268 73.0075 62.3188 72.8738 62.2057 72.7349C61.7273 72.1228 61.1871 71.5724 60.5904 71.094C59.289 70.0343 57.7561 69.3244 56.0586 69.0621C55.5802 68.9849 55.1069 68.9489 54.6388 68.9489C52.324 68.9489 50.0504 69.808 48.1163 71.4438C46.9383 72.4314 45.9558 73.6557 45.1996 75.0343C44.4537 76.4077 43.9291 77.9509 43.6821 79.5764C42.6533 86.2739 46.5371 92.4364 52.3343 93.3314H52.3292Z" fill="white"/>
</svg>
