<svg width="120" height="120" viewBox="0 0 120 120" fill="none" xmlns="http://www.w3.org/2000/svg">
<circle cx="60" cy="60" r="60" fill="#607989"/>
<path d="M77.4329 68.0827L71.5389 64.5261C71.2697 64.363 70.9198 64.4772 70.796 64.7654L64.9827 78.2958C64.902 78.4861 64.7082 78.6112 64.5036 78.6112L43.4034 78.3991C43.1235 78.3991 42.892 78.6166 42.8812 78.8994L42.8597 79.4487C42.8489 79.7151 43.032 79.9435 43.2903 79.9871L68.5945 84.267C68.8098 84.305 69.0251 84.2017 69.1328 84.0059L77.616 68.7843C77.7559 68.5395 77.6698 68.2241 77.4329 68.0773V68.0827Z" fill="white"/>
<path d="M88.0854 63.9497C87.9293 63.6886 87.5901 63.5853 87.3102 63.7267L81.7499 66.5111C81.4431 66.6633 81.3516 67.044 81.5507 67.3159L89.4741 78.0674C89.6087 78.2523 89.6194 78.4915 89.4956 78.6764L84.775 87.122C84.6135 87.3722 84.6889 87.7094 84.9472 87.878L85.2433 88.0683C85.4855 88.226 85.8085 88.1825 85.9969 87.9758L96.0141 78.1924C96.1702 78.0184 96.1971 77.7628 96.0787 77.5616L88.08 63.9497H88.0854Z" fill="white"/>
<path d="M55.1162 56.0968C55.2777 56.124 55.4391 56.0696 55.5576 55.9554L62.3721 49.299C62.4636 49.2066 62.5874 49.1576 62.7166 49.1522L78.8594 48.7008C79.1393 48.6954 79.3653 48.4615 79.3653 48.1787V42.0607C79.36 41.7344 79.0639 41.4897 78.7463 41.5441L60.6442 44.9267C60.5097 44.9539 60.3966 45.0246 60.3159 45.1388L53.3453 55.0418C53.1246 55.3572 53.3076 55.7977 53.6844 55.863L55.1108 56.0968H55.1162Z" fill="white"/>
<path d="M93.1451 35.8937C93.5542 32.4241 91.0997 29.2808 87.6655 28.873C84.2313 28.4597 81.1201 30.9395 80.7164 34.4091C80.3073 37.8787 82.7618 41.022 86.196 41.4299C89.6302 41.8432 92.7414 39.3633 93.1451 35.8937Z" fill="white"/>
<path d="M81.2977 99.3037C81.2977 99.3037 81.2708 99.3037 81.2601 99.3037C78.1865 99.1134 76.4748 96.7206 76.4048 96.6172C75.4413 95.2631 75.1776 93.8274 75.6297 92.4624C76.3026 90.4448 78.5579 88.6665 81.6638 87.6985C85.324 86.5619 86.772 80.4547 86.7881 80.3949C86.8689 80.0469 87.2133 79.8293 87.5578 79.9109C87.9023 79.9925 88.1176 80.3405 88.0369 80.6886C87.9723 80.9714 86.4006 87.5788 82.0406 88.933C79.3653 89.765 77.3737 91.2714 76.8408 92.8703C76.5179 93.8328 76.7224 94.8389 77.4437 95.8559C77.4599 95.8776 78.8917 97.8463 81.3354 97.9985C81.6907 98.0203 81.9598 98.3248 81.9383 98.6838C81.9168 99.0264 81.6369 99.2928 81.2977 99.2928V99.3037Z" fill="white"/>
<path d="M32.498 81.662C32.2611 81.662 32.0351 81.5261 31.922 81.2977C30.571 78.5024 31.7874 75.8159 31.8359 75.7072C32.5303 74.1953 33.6337 73.2491 35.0278 72.9771C37.0948 72.5747 39.7431 73.6787 42.1061 75.9356C44.889 78.5894 50.8584 76.8546 50.923 76.8383C51.2621 76.7404 51.6174 76.9362 51.7197 77.2788C51.8219 77.6214 51.6228 77.9803 51.2837 78.0837C51.0092 78.1652 44.5391 80.0414 41.2287 76.8818C39.1941 74.9404 36.9118 73.9397 35.2754 74.2551C34.2904 74.4455 33.5207 75.1198 33.0039 76.2564C32.9932 76.2782 32.0028 78.5079 33.0793 80.7321C33.2354 81.053 33.1008 81.4391 32.7832 81.5968C32.6917 81.6403 32.5949 81.662 32.5033 81.662H32.498Z" fill="white"/>
<path d="M48.2424 96.6879L18.0723 70.5898L19.0304 69.4586L49.2006 95.5568C50.008 96.2529 51.6443 96.1658 52.371 95.3066C53.0976 94.4474 53.9912 96.7042 53.9912 96.7042C53.9912 96.7042 51.2998 99.3255 48.2424 96.6825V96.6879Z" fill="white"/>
<path d="M92.004 99.9998H52.2902V98.5152H92.004C93.0644 98.5152 94.254 97.3731 94.254 96.242C94.254 95.1108 96.3855 96.242 96.3855 96.242C96.3855 96.242 96.0303 99.9998 92.004 99.9998Z" fill="white"/>
<path d="M21.2373 28.4705C21.5872 28.03 22.2223 27.9539 22.6637 28.3074L59.0617 57.6032C59.4977 57.9567 59.5731 58.5984 59.2232 59.0444C58.8733 59.4849 58.2382 59.561 57.7968 59.2075L21.3988 29.9117C20.9628 29.5582 20.8874 28.9165 21.2373 28.4705Z" fill="white"/>
<path d="M68.4115 49.5818C68.4115 49.5818 67.884 50.5553 67.2488 51.7354C63.9331 57.8044 60.5258 64.5914 60.6335 64.9068C60.725 65.1678 61.3655 65.5485 63.2764 66.4839L65.1334 67.3975L65.5856 65.9292C67.3457 60.1429 68.0616 57.3531 67.9055 56.8963C67.8355 56.6896 67.9594 56.1947 68.3038 55.3246C68.6268 54.5034 71.8726 48.4724 72.0125 48.418L76.0334 41.0601C76.055 40.9459 76.3295 40.2824 76.6471 39.5809C76.9646 38.8793 77.2392 38.1615 77.2553 37.9875C77.2715 37.8134 77.3091 37.4545 77.3253 37.2098C77.3737 36.5463 79.1447 32.9136 81.6153 28.3944C82.9395 25.9635 83.6069 24.6638 83.5693 24.5604C83.51 24.3592 82.9179 24.0438 82.7349 24.1036C82.665 24.1362 82.4819 24.2994 82.3205 24.4734C81.6907 25.1586 80.6895 26.9206 75.8612 35.8122C74.1495 38.9772 72.7015 41.6365 72.6531 41.7235L68.4115 49.5872V49.5818Z" fill="white"/>
</svg>
