<svg width="120" height="120" viewBox="0 0 120 120" fill="none" xmlns="http://www.w3.org/2000/svg">
<circle cx="60" cy="60" r="60" fill="#607989"/>
<path d="M41.3481 33.4618C41.8167 37.0182 45.0778 39.5218 48.6343 39.0596C52.1907 38.591 54.6943 35.3298 54.2321 31.7734C53.7635 28.217 50.5023 25.7134 46.9459 26.1756C43.3895 26.6442 40.8859 29.9053 41.3481 33.4618Z" fill="white"/>
<path d="M41.2646 41.9741L39.7624 49.6968L50.6436 54.9416L64.4071 50.6982L63.412 48.8494L49.9374 50.5506L41.2646 41.9741Z" fill="white"/>
<path d="M55.2656 39.6438L52.1072 46.8529L61.5761 54.3574L75.9366 53.234L75.3717 51.2118L61.8457 49.9086L55.2656 39.6438Z" fill="white"/>
<path d="M51.0223 67.4468C51.1186 67.6266 51.2534 67.7935 51.446 67.909L51.4653 67.9283L65.9413 76.9799C66.3458 77.2238 66.5512 77.686 66.4806 78.1482L66.2559 79.6183L64.5355 90.9873C64.4456 91.5907 64.8308 92.1685 65.4342 92.3097C65.5626 92.3354 65.6846 92.3418 65.8065 92.329C66.2752 92.2841 66.6796 91.9695 66.8272 91.5009L72.0463 74.3864C72.194 73.8856 72.0014 73.3464 71.5649 73.0704L55.6765 62.4588C55.1822 62.1314 54.5146 62.2213 54.123 62.6707L53.2884 63.6529L51.1636 66.1501C50.8426 66.5353 50.8041 67.0488 51.0159 67.4468H51.0223Z" fill="white"/>
<path d="M48.814 65.6044C49.6164 66.1244 50.3547 66.7407 51.0223 67.4468C51.1186 67.6266 51.2534 67.7935 51.446 67.909L51.4653 67.9283C52.9995 69.6552 54.1615 71.8121 54.8034 74.2259L57.1145 76.3122L60.0033 78.9314C60.3371 79.2331 60.4655 79.7018 60.3371 80.1383L56.4789 93.1828C56.3056 93.7477 56.5945 94.3576 57.1402 94.5951L57.1915 94.6079C57.7564 94.8583 58.4176 94.6208 58.7001 94.0815L66.2559 79.6183L66.9877 78.2188C67.2253 77.7566 67.1354 77.1981 66.7695 76.8386L53.2884 63.6529L53.1087 63.4731C52.685 63.0494 52.0109 63.0238 51.5487 63.3961L50.3354 64.3783L48.8076 65.6108L48.814 65.6044Z" fill="white"/>
<path d="M26.9554 78.0969C27.2058 73.5326 29.0033 69.3213 32.0076 66.24C35.0569 63.1201 38.9664 61.5216 43.03 61.7463C45.7262 61.9003 48.217 62.8376 50.3354 64.3719C50.8169 64.7121 51.2791 65.0973 51.7156 65.4953C53.1729 66.8306 54.4054 68.474 55.3298 70.3356C56.235 72.1524 56.8513 74.1681 57.1081 76.2994C57.2557 77.4228 57.2942 78.5719 57.23 79.7467C56.9861 84.311 55.1886 88.5222 52.1778 91.6164C49.6614 94.1971 46.5351 95.7314 43.2354 96.0588C42.5485 96.123 41.8616 96.1358 41.1555 96.1037C33.696 95.6993 27.8157 89.1963 27.0196 81.0563C26.9233 80.0869 26.9041 79.1047 26.9554 78.0969ZM41.2646 94.2228C44.7697 94.4089 48.1785 93.0159 50.8297 90.3004C53.5259 87.5464 55.1244 83.7589 55.3555 79.6504C55.4647 77.7566 55.2528 75.9142 54.8034 74.2195C54.1615 71.8121 52.9995 69.6487 51.4653 67.9219C51.324 67.755 51.1764 67.6009 51.0223 67.4468C50.3547 66.7471 49.6164 66.1244 48.814 65.6044C47.0679 64.4489 45.0778 63.7556 42.9337 63.6336C42.3303 63.5951 41.7397 63.6079 41.1555 63.6657C38.2859 63.9482 35.5641 65.2963 33.3622 67.556C32.0205 68.9298 30.9484 70.5667 30.1781 72.3706C29.4141 74.1681 28.9583 76.1453 28.8428 78.1996C28.3806 86.6413 33.9592 93.8248 41.2646 94.2292V94.2228Z" fill="white"/>
<path d="M82.2855 50.037C82.2855 51.5199 81.0851 52.714 79.6086 52.714C78.1321 52.714 76.9316 51.5135 76.9316 50.037C76.9316 48.5605 78.1321 47.3601 79.6086 47.3601C81.0851 47.3601 82.2855 48.5605 82.2855 50.037Z" fill="white"/>
<path d="M94.6539 90.3004C96.1324 90.3004 97.3309 89.1019 97.3309 87.6235C97.3309 86.145 96.1324 84.9465 94.6539 84.9465C93.1755 84.9465 91.977 86.145 91.977 87.6235C91.977 89.1019 93.1755 90.3004 94.6539 90.3004Z" fill="white"/>
</svg>
