<svg width="120" height="120" viewBox="0 0 120 120" fill="none" xmlns="http://www.w3.org/2000/svg">
<circle cx="60" cy="60" r="60" fill="#607989"/>
<path d="M44.92 54.8725L62.4092 66.9273C62.7244 67.1449 63.1372 67.1674 63.4825 66.9873L80.2436 58.0701C80.8065 57.7698 80.9642 57.0493 80.5889 56.5388L80.1235 55.9158C79.8608 55.5706 79.4104 55.4204 78.9901 55.548L64.2932 60.0517C63.9254 60.1643 63.5201 60.0592 63.2498 59.789L51.9232 48.2221C51.5403 47.8243 50.9098 47.8093 50.497 48.1771L44.8149 53.2512C44.312 53.694 44.3645 54.4897 44.92 54.8725Z" fill="white"/>
<path d="M63.7002 39.6276C61.6285 42.8853 57.3125 43.8461 54.0549 41.7744C50.7972 39.7027 49.8365 35.3867 51.9081 32.1291C53.9798 28.8714 58.2958 27.9106 61.5535 29.9823C64.8111 32.054 65.7719 36.37 63.7002 39.6276Z" fill="white"/>
<path d="M55.3009 47.6216L56.3067 53.7466C56.3968 54.3095 56.9297 54.6923 57.4927 54.6023L72.1971 52.2303C72.4598 52.1853 72.7 52.0427 72.8576 51.825L81.392 40.3782C81.8124 39.8153 81.5647 39.0121 80.9041 38.787L80.4463 38.6293C80.1085 38.5167 79.7407 38.5768 79.463 38.7945L68.8419 47.2688C68.6317 47.434 68.369 47.5165 68.1063 47.4865L56.4193 46.4131C55.7438 46.3531 55.1958 46.9386 55.3084 47.6066L55.3009 47.6216Z" fill="white"/>
<path d="M106.8 73.2549L13.6121 73.4575C12.1709 73.4575 11 72.6544 11 71.6711C11 70.6803 12.1709 69.8847 13.6121 69.8847L106.8 69.682C108.241 69.682 109.412 70.4851 109.412 71.4684C109.412 72.4592 108.241 73.2549 106.8 73.2549Z" fill="white"/>
<path d="M66.7927 83.6583C66.1172 83.4782 65.7193 82.7801 65.8995 82.1046L81.0618 25.9365C81.2419 25.261 81.94 24.8632 82.6155 25.0433C83.2911 25.2235 83.6889 25.9215 83.5087 26.5971L68.3465 82.7651C68.1663 83.4406 67.4682 83.8385 66.7927 83.6583Z" fill="white"/>
<path d="M68.6167 76.0772C68.6167 76.0772 72.9852 78.0212 71.514 83.5908C70.0503 89.1603 68.2714 95 68.2714 95L57.3726 94.9775C57.3726 94.9775 58.7162 77.3157 68.6092 76.0772H68.6167Z" fill="white"/>
</svg>
