<svg width="120" height="120" viewBox="0 0 120 120" fill="none" xmlns="http://www.w3.org/2000/svg">
<circle cx="60" cy="60" r="60" fill="#607989"/>
<path d="M62.6206 60.1642C61.9037 60.2666 60.0362 60.7786 59.7531 63.4353L60.3977 66.2365C61.229 67.4232 62.5362 67.6702 63.5121 67.3811L76.2471 65.128C76.5001 65.0557 76.7591 65.0437 77.0121 65.1039L99.0543 69.2244C99.7651 69.3931 102.145 69.6823 102.428 69.0015C102.741 68.2606 102.645 68.3268 101.928 67.9835L78.9338 59.1883C78.6688 59.0618 78.3736 59.0136 78.0784 59.0618L62.6145 60.1582L62.6206 60.1642Z" fill="white"/>
<path d="M42.0904 59.9533L49.2712 65.9353C49.5543 66.122 49.9218 66.1401 50.229 65.9774L65.1868 57.9654C65.6868 57.7003 65.8314 57.0618 65.488 56.622L65.0724 56.0798C64.8374 55.7786 64.4338 55.6521 64.0603 55.7726L50.9459 59.8931C50.6145 59.9955 50.2591 59.9112 50.0182 59.6702L47.5663 56.6642C47.223 56.3208 46.6567 56.3148 46.2892 56.6401L42.0001 58.5377C41.5543 58.9353 41.6025 59.6341 42.0965 59.9594L42.0904 59.9533Z" fill="white"/>
<path d="M40.8856 45.1883C43.8615 45.3449 46.1386 47.8871 45.982 50.857C45.8254 53.8329 43.2832 56.11 40.3133 55.9533C37.3374 55.7967 35.0603 53.2545 35.2169 50.2847C35.3736 47.3088 37.9157 45.0317 40.8856 45.1883Z" fill="white"/>
<path d="M94.2531 78.122C93.0904 78.122 91.9278 77.9051 90.8133 77.4594C85.2471 75.2425 82.8374 68.1039 85.4519 61.5497C88.0603 54.9955 94.717 51.4654 100.289 53.6883C105.856 55.9051 108.265 63.0437 105.651 69.5979C103.566 74.8389 98.8916 78.1401 94.2591 78.128L94.2531 78.122ZM87.0483 62.1883C84.7892 67.857 86.7651 73.9895 91.4459 75.857C96.1326 77.7244 101.777 74.628 104.036 68.9594C106.295 63.2907 104.319 57.1582 99.6386 55.2907C94.9519 53.4232 89.3073 56.5196 87.0483 62.1883Z" fill="white"/>
<path d="M25.2892 79.1039C24.1025 79.1039 22.9338 78.875 21.8194 78.4353C16.2531 76.2184 13.8435 69.0798 16.4579 62.5256C17.7109 59.375 19.9278 56.8208 22.6989 55.3329C25.5182 53.8148 28.5724 53.5798 31.2953 54.6642C34.0182 55.7485 36.0724 58.0196 37.0784 61.0618C38.0663 64.0497 37.9157 67.4292 36.6627 70.5738C35.4097 73.7244 33.1929 76.2786 30.4218 77.7666C28.7531 78.6642 27.0061 79.116 25.2953 79.11L25.2892 79.1039ZM27.8254 55.7184C26.3916 55.7184 24.9278 56.0919 23.5182 56.8509C21.1085 58.1521 19.1688 60.3931 18.0663 63.1642C15.8073 68.8329 17.7832 74.9654 22.4639 76.8329C24.7049 77.7244 27.241 77.5196 29.6025 76.2485C32.0121 74.9533 33.9519 72.7064 35.0543 69.9353C36.1567 67.1642 36.2953 64.2003 35.4338 61.6039C34.5904 59.0557 32.8977 57.1642 30.6507 56.2666C29.7471 55.9051 28.7892 55.7244 27.8194 55.7184H27.8254Z" fill="white"/>
<path d="M69.6627 77.6582C60.9459 77.628 28.3615 69.9413 25.9037 67.11C25.6447 66.8148 25.6206 66.381 25.8435 66.0557C26.0663 65.7304 26.476 65.5979 26.8435 65.7304C27.0784 65.8148 50.3916 73.9654 71.8675 72.3991C73.1085 72.3088 74.241 72.9172 74.7531 73.9533C75.1206 74.7003 74.976 75.3027 74.7892 75.6762C74.3314 76.5859 73.1326 77.1943 71.0182 77.5738C70.6688 77.6341 70.2169 77.6642 69.6627 77.6642V77.6582ZM54.1808 73.5859C61.735 75.1883 68.4941 76.2726 70.7169 75.869C72.9037 75.4774 73.2169 74.9533 73.2471 74.8991C73.2531 74.8871 73.2712 74.8509 73.2109 74.7244C73.0121 74.3268 72.5302 74.0919 72.0001 74.128C66.0242 74.5618 59.9157 74.2606 54.1868 73.5919L54.1808 73.5859Z" fill="white"/>
<path d="M96.1386 64.622C96.0543 64.622 95.9639 64.5979 95.8916 64.5437L83.4278 55.7003L67.5302 55.0256C67.2892 55.0136 67.1085 54.8148 67.1145 54.5738C67.1266 54.3329 67.3374 54.1401 67.5663 54.1582L83.5904 54.8389C83.6748 54.8389 83.7531 54.869 83.8194 54.9172L96.3916 63.8329C96.5844 63.9714 96.6326 64.2425 96.494 64.4353C96.4097 64.5558 96.2772 64.616 96.1386 64.616V64.622Z" fill="white"/>
<path d="M68.2772 58.4594C67.7651 58.4594 67.229 58.2726 66.7109 57.9051C65.982 57.3931 65.3736 56.5799 64.988 55.616C64.6025 54.6521 64.488 53.6401 64.6627 52.7666C64.8495 51.8268 65.3495 51.1521 66.0724 50.869C66.7892 50.5798 67.6206 50.7305 68.4037 51.2786C69.1326 51.7907 69.7411 52.6039 70.1266 53.5678C70.5121 54.5317 70.6266 55.5437 70.4519 56.4172C70.2651 57.357 69.7651 58.0317 69.0423 58.3148C68.8013 58.4112 68.5423 58.4594 68.2832 58.4594H68.2772ZM66.8254 51.5919C66.6748 51.5919 66.5242 51.616 66.3917 51.6702C65.9519 51.8449 65.6386 52.2967 65.5121 52.9413C65.3676 53.6521 65.47 54.4895 65.7892 55.3027C66.1145 56.116 66.6145 56.7907 67.2109 57.2064C67.7471 57.5859 68.2832 57.6943 68.723 57.5196C69.1627 57.3449 69.476 56.8931 69.6025 56.2485C69.7471 55.5377 69.6447 54.7003 69.3254 53.8931C69.0001 53.0799 68.5001 52.4051 67.9037 51.9895C67.5362 51.7305 67.1627 51.5979 66.8254 51.5919Z" fill="white"/>
</svg>
