<svg width="121" height="120" viewBox="0 0 121 120" fill="none" xmlns="http://www.w3.org/2000/svg">
<circle cx="60.3086" cy="60" r="60" fill="#607989"/>
<path d="M27.4836 54.0946L28.7772 39.281C28.799 39.0197 29.0606 38.8455 29.3149 38.9181L34.1477 40.2609C34.373 40.3262 34.5038 40.5512 34.4529 40.7689L31.2698 53.4196C31.248 53.5212 31.2553 53.6301 31.3134 53.7172L35.0779 60.4816C35.1433 60.5978 35.1506 60.7357 35.0924 60.859L34.5983 61.9187C34.4674 62.2018 34.075 62.2453 33.8788 61.9985L27.5853 54.3994C27.5126 54.3123 27.4836 54.2035 27.4908 54.0946H27.4836Z" fill="white"/>
<path d="M41.7493 27.0803C38.9586 26.9424 36.5822 29.1489 36.4442 32.0013C36.3061 34.8537 38.4499 37.2778 41.2406 37.4157C44.0312 37.5536 46.4076 35.3472 46.5457 32.4948C46.691 29.6497 44.5399 27.2255 41.7493 27.0803Z" fill="white"/>
<path d="M50.3247 43.077L68.9362 60.9752C69.4086 61.4252 69.4231 62.18 68.9653 62.6445C68.5511 63.0727 67.8825 63.1308 67.4101 62.7751L46.4658 47.3011C45.8916 46.8729 45.819 46.0455 46.3204 45.5302L48.6532 43.106C49.1038 42.6342 49.8596 42.6197 50.3247 43.077Z" fill="white"/>
<path d="M66.945 62.1582C67.7735 63.1961 72.1774 69.6775 73.2966 71.0783C74.4012 72.4791 76.9448 75.6799 78.9215 78.1839C81.8211 81.8492 82.5842 82.7491 82.8095 82.7709C82.9621 82.7927 83.2237 82.887 83.3763 82.9887C83.6162 83.1483 84.0304 83.1701 86.4286 83.1846C88.5216 83.1919 89.4227 83.2354 90.1204 83.3661C91.5884 83.6491 91.8791 83.7653 92.2788 84.1935L92.6494 84.5854L87.9911 84.6362C83.558 84.687 83.3037 84.7088 82.6278 84.9411C81.5305 85.2967 80.7529 85.9136 80.3168 86.7556C79.859 87.6701 79.75 90.0725 80.1206 91.2773C80.5203 92.5329 81.5523 93.4474 82.933 93.7377C83.3109 93.8103 85.3531 93.8539 89.0158 93.8539C95.0186 93.8539 95.3601 93.8248 96.2467 93.2369C97.9109 92.1555 98.5505 89.7531 97.7801 87.5539C97.4022 86.4943 96.6101 85.5507 95.6871 85.079C95.331 84.8975 95.222 84.7523 95.0113 84.2007C94.6625 83.2717 94.0229 82.3137 93.4779 81.9217C92.4023 81.1379 90.5346 80.8403 86.8574 80.8403H84.1758L68.7691 61.3163L66.9523 62.1582H66.945Z" fill="white"/>
<path d="M44.7725 68.3493C44.8597 68.5162 44.9905 68.6759 45.1722 68.7775L45.194 68.792L58.7184 77.2403C59.0963 77.4653 59.2853 77.9008 59.2271 78.329L59.0164 79.7008L57.4103 90.3047C57.3231 90.8708 57.6865 91.4079 58.246 91.5386C58.3623 91.5603 58.4786 91.5676 58.5949 91.5603C59.0309 91.5168 59.4088 91.2265 59.5469 90.7837L64.4232 74.8162C64.5613 74.3516 64.3796 73.8508 63.9727 73.5896L49.1256 63.6897C48.6605 63.3848 48.0428 63.4719 47.6721 63.8856L45.4265 66.5275L44.9106 67.1372C44.6126 67.4928 44.5763 67.9719 44.7725 68.342V68.3493Z" fill="white"/>
<path d="M42.7086 66.6291C43.4571 67.1154 44.1475 67.6888 44.7725 68.342C44.8597 68.509 44.9905 68.6686 45.1722 68.7702L45.194 68.7848C46.6256 70.396 47.7085 72.4138 48.3116 74.6565L53.1735 79.0403C53.486 79.3161 53.6095 79.7589 53.486 80.1653L49.8814 92.337C49.7215 92.8668 49.9904 93.4329 50.4991 93.6579L50.5427 93.6724C51.0732 93.9047 51.6837 93.6869 51.9526 93.1789L59.6922 78.3798C59.9175 77.9516 59.8303 77.429 59.4887 77.0952L46.8945 64.7929L46.7274 64.6259C46.3349 64.234 45.7027 64.205 45.2666 64.5534L42.7086 66.6146V66.6291Z" fill="white"/>
<path d="M22.2947 78.2855C22.5345 74.025 24.206 70.0985 27.0185 67.2243C29.8672 64.3138 33.5154 62.8187 37.3162 63.0292C39.838 63.1743 42.1635 64.0453 44.1402 65.4824C44.5908 65.8017 45.0196 66.1574 45.4265 66.5348C46.7855 67.7832 47.941 69.3146 48.7986 71.0493C49.6488 72.7404 50.2229 74.6202 50.4628 76.6161C50.6008 77.6613 50.6372 78.7355 50.5718 79.8314C50.3465 84.0919 48.6677 88.0184 45.8553 90.8999C43.508 93.3023 40.5865 94.7393 37.4979 95.0442C36.8584 95.1095 36.2116 95.1168 35.5575 95.0877C28.5882 94.7103 23.1014 88.6426 22.3529 81.0508C22.2657 80.1508 22.2439 79.229 22.2947 78.2927V78.2855ZM35.6593 93.3313C38.9368 93.5055 42.1199 92.2063 44.5981 89.6733C47.1125 87.1039 48.6096 83.5693 48.8276 79.7371C48.9294 77.9661 48.7331 76.2532 48.3116 74.671C47.7085 72.421 46.6256 70.4033 45.194 68.7993C45.0632 68.6469 44.9251 68.5017 44.7797 68.3565C44.1548 67.7033 43.4644 67.1227 42.7158 66.6437C41.088 65.5622 39.2275 64.9163 37.2218 64.8001C36.6622 64.7638 36.1026 64.7784 35.5575 64.8292C32.8759 65.0904 30.3324 66.3461 28.2757 68.4582C27.0185 69.7428 26.0229 71.267 25.3034 72.9509C24.5912 74.6274 24.1624 76.4782 24.0607 78.3871C23.6319 86.262 28.8353 92.9684 35.6666 93.3386L35.6593 93.3313Z" fill="white"/>
</svg>
