<svg width="120" height="120" viewBox="0 0 120 120" fill="none" xmlns="http://www.w3.org/2000/svg">
<circle cx="60" cy="60" r="60" fill="#607989"/>
<path d="M41.9646 32.8832L33.7949 44.5544C33.6518 44.759 33.7336 45.0454 33.9688 45.1528L38.3348 47.1372C38.5393 47.2292 38.7744 47.1474 38.8716 46.9531L44.3265 35.7115C44.3725 35.6195 44.4492 35.553 44.5412 35.5172L51.4635 32.8628C51.581 32.8168 51.6731 32.7196 51.7037 32.5968L51.99 31.5126C52.0667 31.2262 51.8111 30.9551 51.5146 31.0063L42.2253 32.7196C42.1231 32.74 42.031 32.7963 41.9697 32.8832H41.9646Z" fill="white"/>
<path d="M48.4369 41.1379C45.7682 41.005 43.4932 43.1172 43.3603 45.8535C43.2273 48.5897 45.2825 50.9116 47.9512 51.0446C50.6199 51.1776 52.8949 49.0653 53.0279 46.3291C53.1608 43.5929 51.1056 41.2709 48.4369 41.1379Z" fill="white"/>
<path d="M49.3265 54.4304H74.0399C74.6636 54.4304 75.1749 54.9367 75.1749 55.5658C75.1749 56.1335 74.7505 56.6142 74.1882 56.6909L49.4747 59.913C48.7948 60 48.1966 59.4732 48.1966 58.7879V55.5658C48.1966 54.9418 48.7028 54.4304 49.3316 54.4304H49.3265Z" fill="white"/>
<path d="M74.5051 55.4277L74.0757 52.6863V58.1741L74.5051 55.4277Z" fill="white"/>
<path d="M74.0757 58.348C74.0757 58.348 74.0655 58.348 74.0604 58.348C73.999 58.3378 73.953 58.2662 73.953 58.1792V52.6915C73.953 52.6045 73.999 52.5329 74.0604 52.5227C74.1217 52.5124 74.1779 52.5687 74.1933 52.6557L74.6023 55.264H111.182C111.248 55.264 111.304 55.3407 111.304 55.4328C111.304 55.5248 111.248 55.6016 111.182 55.6016H74.6023L74.1933 58.2099C74.1831 58.2866 74.1319 58.3429 74.0757 58.3429V58.348ZM74.1984 54.2565V56.5989L74.3824 55.4277L74.1984 54.2565Z" fill="white"/>
<path d="M39.5106 71.9064C39.5873 72.0547 39.6998 72.1877 39.8531 72.2797L39.8685 72.2951L51.5913 79.6292C51.9185 79.8286 52.0872 80.202 52.0309 80.5754L51.8469 81.767L50.4563 90.9781C50.3796 91.4691 50.6966 91.9396 51.1823 92.0521C51.2845 92.0726 51.3868 92.0777 51.4839 92.0675C51.8622 92.0317 52.1894 91.776 52.307 91.3975L56.535 77.5323C56.6577 77.1282 56.4992 76.6935 56.1464 76.4633L43.2785 67.8711C42.8746 67.6051 42.3378 67.6767 42.0208 68.0399L41.346 68.8377L40.073 70.3363L39.6282 70.863C39.3675 71.175 39.3368 71.5893 39.5106 71.9115V71.9064Z" fill="white"/>
<path d="M37.7213 70.4181C38.3705 70.8375 38.9687 71.3387 39.5106 71.9064C39.5873 72.0547 39.6998 72.1877 39.8531 72.2797L39.8685 72.2951C41.1108 73.6913 42.0515 75.4456 42.573 77.3942L44.4441 79.0819L46.7856 81.1993C47.0565 81.4397 47.1639 81.8233 47.0566 82.1762L43.9329 92.7477C43.7948 93.208 44.0249 93.699 44.4697 93.8933L44.5106 93.9036C44.9656 94.103 45.5024 93.9138 45.7324 93.474L52.445 80.6214C52.6393 80.248 52.5626 79.798 52.2661 79.5013L41.3511 68.8224L41.2079 68.6741C40.8654 68.3314 40.3184 68.3058 39.9452 68.6127L37.7264 70.4027L37.7213 70.4181Z" fill="white"/>
<path d="M20.0221 80.5344C20.2266 76.8367 21.6785 73.4254 24.112 70.9295C26.5813 68.3979 29.7459 67.109 33.0383 67.288C35.2213 67.4108 37.2356 68.1728 38.9585 69.4157C39.347 69.6918 39.7202 69.9987 40.0781 70.326C41.2591 71.4052 42.256 72.74 43.0024 74.2437C43.7386 75.7166 44.2345 77.3481 44.4441 79.0768C44.5617 79.9872 44.5924 80.918 44.5412 81.8693C44.3419 85.567 42.8899 88.9784 40.4513 91.4844C38.4166 93.5711 35.8808 94.8191 33.207 95.0799C32.6497 95.1361 32.0925 95.1413 31.5199 95.1157C25.477 94.7884 20.7174 89.5205 20.0732 82.928C19.9965 82.1455 19.9812 81.3476 20.0221 80.5293V80.5344ZM31.6068 93.5967C34.4442 93.7501 37.2049 92.6198 39.3521 90.4206C41.5351 88.1856 42.8286 85.1221 43.0177 81.7926C43.1046 80.2583 42.9359 78.77 42.573 77.3942C42.0515 75.4405 41.1108 73.6913 39.8685 72.2951C39.756 72.1621 39.6333 72.0342 39.5106 71.9064C38.9738 71.3387 38.3705 70.8375 37.7213 70.4181C36.3102 69.4821 34.6947 68.9196 32.9616 68.8224C32.4759 68.7917 31.9902 68.8019 31.5199 68.848C29.1938 69.0781 26.9903 70.1675 25.2061 71.9984C24.1171 73.1083 23.2531 74.438 22.6243 75.8956C22.0057 77.3533 21.6376 78.9541 21.5456 80.6163C21.1724 87.4543 25.6866 93.2745 31.6068 93.6018V93.5967Z" fill="white"/>
</svg>
