<svg width="121" height="120" viewBox="0 0 121 120" fill="none" xmlns="http://www.w3.org/2000/svg">
<circle cx="60.9587" cy="60" r="60" fill="#607989"/>
<path d="M39.8925 61.6899C40.0302 61.6622 40.1449 61.57 40.2045 61.4455L43.6831 54.1155C43.729 54.0141 43.8116 53.9358 43.9172 53.8943L56.6796 48.6987C56.8999 48.6065 57.01 48.3576 56.9274 48.1317L55.1147 43.2773C55.0183 43.0192 54.7109 42.9085 54.4722 43.0514L41.0122 51.1605C40.9159 51.2204 40.8424 51.3172 40.8149 51.4279L38.1716 61.3856C38.0889 61.7037 38.3643 61.9987 38.6855 61.9342L39.8925 61.6899Z" fill="white"/>
<path d="M70.9106 33.398C69.286 30.927 65.9772 30.2493 63.5175 31.8813C61.0577 33.5132 60.3831 36.8371 62.0076 39.3081C63.6322 41.779 66.941 42.4567 69.4008 40.8248C71.8605 39.1928 72.5351 35.869 70.9106 33.398Z" fill="white"/>
<path d="M72.3332 96.6525H38.4744V95.394H72.3332C73.2373 95.394 74.2515 94.4259 74.2515 93.467C74.2515 92.5081 76.0688 93.467 76.0688 93.467C76.0688 93.467 75.7659 96.6525 72.3332 96.6525Z" fill="white"/>
<path d="M88.6523 96.694H54.7935V95.4355H88.6523C89.5563 95.4355 90.5705 94.4674 90.5705 93.5085C90.5705 92.5496 92.3878 93.5085 92.3878 93.5085C92.3878 93.5085 92.085 96.694 88.6523 96.694Z" fill="white"/>
<path d="M7.43798 50.8148C7.58483 50.3584 8.07587 50.1094 8.5302 50.2615L43.4858 61.7083C43.9401 61.8558 44.1879 62.3491 44.0365 62.8055C43.8896 63.2619 43.3986 63.5108 42.9443 63.3587L7.99327 51.9073C7.53894 51.7598 7.29113 51.2665 7.44257 50.8101L7.43798 50.8148Z" fill="white"/>
<path d="M96.385 49.8927C96.2703 49.8144 96.1234 49.7959 95.9903 49.842L88.3723 52.5574C88.2668 52.5942 88.1521 52.5896 88.0511 52.5481L75.3712 47.159C75.151 47.0668 74.894 47.1636 74.7976 47.3849L72.6591 52.1056C72.5443 52.3591 72.6866 52.6542 72.9528 52.7187L88.1796 56.545C88.2897 56.5727 88.409 56.5543 88.51 56.4989L97.3854 51.3357C97.67 51.1697 97.6837 50.764 97.4084 50.5842L96.385 49.8974V49.8927Z" fill="white"/>
<path d="M111.676 80.6372C111.249 80.8539 110.731 80.6833 110.515 80.2546L93.8564 47.3296C93.6407 46.9008 93.8105 46.3799 94.2373 46.1632C94.6641 45.9465 95.1826 46.1171 95.3983 46.5458L112.057 79.4708C112.273 79.8996 112.103 80.4205 111.676 80.6372Z" fill="white"/>
<path d="M69.5889 67.4617L67.1658 72.4313C67.0557 72.6572 67.1658 72.9292 67.4045 73.0122L78.4965 76.7832C78.6525 76.8385 78.7672 76.9814 78.7764 77.1474L80.0155 94.1078C80.0338 94.3337 80.222 94.5042 80.4469 94.495L80.8828 94.4766C81.0939 94.4673 81.2637 94.306 81.2821 94.0939L82.9847 73.487C82.9984 73.3118 82.9021 73.1458 82.7414 73.0721L70.1304 67.268C69.9239 67.1758 69.6853 67.2588 69.5843 67.4617H69.5889Z" fill="white"/>
<path d="M57.7443 83.2787C57.9416 83.2972 58.1252 83.1865 58.2032 82.9975L63.5955 73.9019C63.6919 73.6622 63.5863 73.3764 63.3477 73.2611L58.6162 70.8777C58.3547 70.744 58.0518 70.8777 57.9692 71.1543L54.7889 82.0571L57.7397 83.2741L57.7443 83.2787Z" fill="white"/>
<path d="M51.1956 94.8869C51.1956 94.8869 51.1726 94.8869 51.1635 94.8869C48.543 94.7255 47.0837 92.6971 47.024 92.6095C46.2026 91.4616 45.9777 90.2445 46.3632 89.0874C46.9368 87.3771 48.8597 85.8696 51.5076 85.049C54.6283 84.0855 55.8628 78.9084 55.8765 78.8577C55.9454 78.5627 56.2391 78.3783 56.5328 78.4474C56.8265 78.5166 57.01 78.8116 56.9412 79.1067C56.8861 79.3464 55.5461 84.9476 51.8289 86.0955C49.5481 86.8008 47.8501 88.0778 47.3958 89.4332C47.1204 90.2491 47.2948 91.102 47.9097 91.9641C47.9235 91.9825 49.1442 93.6514 51.2277 93.7804C51.5306 93.7989 51.76 94.0571 51.7417 94.3613C51.7233 94.6517 51.4847 94.8776 51.1956 94.8776V94.8869Z" fill="white"/>
</svg>
