<svg width="120" height="120" viewBox="0 0 120 120" fill="none" xmlns="http://www.w3.org/2000/svg">
<circle cx="60" cy="60" r="60" fill="#607989"/>
<path d="M69.9248 61.9896L63.6163 63.6326C63.33 63.7094 63.1715 64.0165 63.284 64.2929L68.4729 77.166C68.5445 77.3503 68.5036 77.5602 68.3656 77.6984L54.1636 91.8511C53.9745 92.0405 53.9694 92.3425 54.1534 92.537L54.5062 92.9158C54.6749 93.1001 54.956 93.1257 55.1554 92.9772L74.8889 78.6607C75.0576 78.5378 75.1292 78.3228 75.0729 78.1232L70.5332 62.3223C70.4616 62.0664 70.1958 61.9128 69.9351 61.9793L69.9248 61.9896Z" fill="white"/>
<path d="M77.1281 64.3287L70.8195 65.9718C70.5332 66.0486 70.3747 66.3557 70.4872 66.6321L75.6762 79.5052C75.7477 79.6895 75.7068 79.8993 75.5688 80.0375L61.3669 94.1903C61.1777 94.3797 61.1726 94.6817 61.3566 94.8762L61.7094 95.255C61.8781 95.4392 62.1593 95.4648 62.3586 95.3164L82.0921 80.9998C82.2608 80.877 82.3324 80.662 82.2761 80.4624L77.7364 64.6614C77.6649 64.4055 77.399 64.252 77.1383 64.3185L77.1281 64.3287Z" fill="white"/>
<path d="M54.7004 57.3573C54.8538 57.3829 55.0072 57.3317 55.1196 57.2242L61.5918 50.9591C61.6787 50.8721 61.7963 50.826 61.919 50.8209L77.2508 50.3961C77.5166 50.391 77.7313 50.1709 77.7313 49.9047V44.1463C77.7262 43.8392 77.445 43.6089 77.1434 43.6601L59.9507 46.8438C59.8229 46.8694 59.7156 46.936 59.6389 47.0434L53.0185 56.3643C52.8089 56.6612 52.9827 57.0758 53.3405 57.1372L54.6953 57.3573H54.7004Z" fill="white"/>
<path d="M94.1162 69.2118C94.1571 69.0941 94.152 68.9661 94.106 68.8535L88.0582 54.7417C87.9508 54.496 88.0582 54.2094 88.3035 54.1019L93.5283 51.6911C93.8095 51.5631 94.1367 51.7167 94.2134 52.0187L98.5435 68.9764C98.5741 69.0992 98.5588 69.2323 98.4923 69.3449" fill="white"/>
<path d="M96.8615 40.4917C97.2501 37.2261 94.9189 34.2676 91.6572 33.8837C88.3956 33.4947 85.4407 35.8287 85.0572 39.0943C84.6687 42.36 86.9999 45.3185 90.2616 45.7024C93.5232 46.0914 96.4781 43.7573 96.8615 40.4917Z" fill="white"/>
<path d="M60.4466 101.776L31.7922 77.2121L32.7022 76.1475L61.3566 100.711C62.1235 101.367 63.6776 101.285 64.3678 100.476C65.0579 99.6671 65.9066 101.791 65.9066 101.791C65.9066 101.791 63.3504 104.258 60.4466 101.771V101.776Z" fill="white"/>
<path d="M66.9699 107.355L38.3155 82.7913L39.2255 81.7267L67.8799 106.291C68.6468 106.946 70.2009 106.864 70.8911 106.055C71.5812 105.246 72.4299 107.371 72.4299 107.371C72.4299 107.371 69.8737 109.838 66.9699 107.35V107.355Z" fill="white"/>
<path d="M22.5236 31.3551C22.8559 30.9405 23.4642 30.8688 23.8783 31.2015L58.4477 58.7751C58.8618 59.1078 58.9333 59.7118 58.601 60.1315C58.2687 60.5461 57.6655 60.6177 57.2463 60.285L22.6769 32.7115C22.2628 32.3788 22.1913 31.7697 22.5236 31.3551Z" fill="white"/>
</svg>
