<svg width="120" height="120" viewBox="0 0 120 120" fill="none" xmlns="http://www.w3.org/2000/svg">
<circle cx="60" cy="60" r="60" fill="#607989"/>
<path d="M53.947 64.795L64.9289 76.1624C65.1096 76.3492 65.1819 76.6203 65.1096 76.8733L60.5735 93.2407C60.441 93.7106 60.7964 94.1805 61.2904 94.1805C61.5675 94.1805 61.8205 94.0299 61.947 93.7829L70.9831 76.5901C71.1157 76.3431 71.0916 76.0359 70.9289 75.807L61.1096 62.2889C60.9289 62.0419 60.6217 61.9335 60.3265 62.0058L54.2964 63.554C53.7482 63.6925 53.5554 64.3793 53.947 64.7889V64.795Z" fill="white"/>
<path d="M45.5494 58.2889L37.4048 72.1684C37.3205 72.3191 37.1819 72.4275 37.0193 72.4937L21.4892 78.4697C21.1337 78.6082 20.9349 78.9697 21.0193 79.3431L21.1699 80.0299C21.2723 80.4937 21.7602 80.795 22.2301 80.6925L42.5855 76.1203C42.7663 76.0781 42.9289 75.9817 43.0374 75.8371L53.4349 62.3612C53.7422 61.9636 53.5735 61.3793 53.0916 61.1444L46.6337 57.9938C46.2301 57.795 45.7542 57.9215 45.5434 58.2829L45.5494 58.2889Z" fill="white"/>
<path d="M36.1337 39.4275L53.3807 38.319C53.6819 38.301 53.9289 38.566 53.8928 38.8733L53.194 44.6504C53.1639 44.9154 52.9289 45.1142 52.6639 45.0841L37.5795 43.6444C37.459 43.6323 37.3386 43.6684 37.2422 43.7407L30.1277 49.2407C30.0072 49.3371 29.8446 49.3672 29.7 49.3251L28.3988 48.9395C28.0554 48.8371 27.9349 48.3974 28.1759 48.1263L35.8084 39.5781C35.8928 39.4817 36.0133 39.4215 36.1398 39.4154L36.1337 39.4275Z" fill="white"/>
<path d="M82.4048 61.3492L66.9229 55.1684C66.6398 55.054 66.5313 54.7106 66.7 54.4456L69.8084 49.5299C69.953 49.301 70.2482 49.2287 70.4711 49.3612L82.9711 56.8311C83.4048 57.0901 83.9169 57.1745 84.4109 57.066L91.8687 55.4395C92.4892 55.307 93.1398 55.4757 93.6096 55.8974L94.0494 56.2889C94.3205 56.5299 94.2362 56.9757 93.8988 57.1203L83.8988 61.3251C83.4229 61.5239 82.8807 61.5299 82.3988 61.3371L82.4048 61.3492Z" fill="white"/>
<path d="M82.9427 94.1342C85.9377 93.7654 88.0666 91.0385 87.6978 88.0435C87.329 85.0485 84.6022 82.9196 81.6072 83.2884C78.6122 83.6572 76.4832 86.3841 76.852 89.379C77.2208 92.374 79.9477 94.503 82.9427 94.1342Z" fill="white"/>
<path d="M73.3265 41.8974C71.6578 43.7528 68.9651 44.4998 66.4892 43.5781C63.2422 42.3733 61.5856 38.7648 62.7904 35.5178C63.9952 32.2708 67.6036 30.6142 70.8506 31.819C73.5434 32.819 75.1458 35.4757 74.9229 38.2046C74.0795 37.2407 72.2783 36.1443 71.2964 35.6142C70.0133 34.9215 68.6458 36.2407 68.4289 37.6263C68.206 39.0118 69.4952 39.4877 71.3627 39.5901C72.7964 39.6745 73.2181 41.1925 73.3386 41.8974H73.3265Z" fill="white"/>
<path d="M89.1638 42.9337C88.3746 42.506 87.7662 41.8675 87.3445 41.012C86.9168 40.1566 86.6758 39.0964 86.6156 37.8313V37.8193H89.977V37.8313C90.0072 38.6566 90.1999 39.2771 90.5493 39.6988C90.9048 40.1205 91.3987 40.3313 92.0493 40.3313C92.6999 40.3313 93.218 40.1205 93.5855 39.7048C93.9529 39.2892 94.1337 38.7048 94.1337 37.9518V34.4277C94.1337 33.6807 93.965 33.1084 93.6216 32.7108C93.2782 32.3072 92.8024 32.1084 92.1939 32.1084C91.6939 32.1084 91.2722 32.241 90.9288 32.512C90.5855 32.7831 90.3566 33.1627 90.2361 33.6506H87.0795V22H97.0975V25.2289H90.4409V29.7831C90.7662 29.4819 91.1397 29.247 91.5734 29.0783C92.0072 28.9096 92.4469 28.8313 92.8927 28.8313C93.8626 28.8313 94.6879 29.0482 95.3746 29.488C96.0614 29.9217 96.5855 30.5602 96.9469 31.4036C97.3084 32.247 97.4891 33.253 97.4891 34.4277V37.9518C97.4891 39.1386 97.2722 40.1506 96.8445 40.994C96.4108 41.8374 95.7903 42.4759 94.971 42.9157C94.1517 43.3554 93.1698 43.5783 92.0252 43.5783C90.8807 43.5783 89.9409 43.3675 89.1517 42.9398L89.1638 42.9337Z" fill="white"/>
</svg>
