<svg width="120" height="120" viewBox="0 0 120 120" fill="none" xmlns="http://www.w3.org/2000/svg">
<circle cx="60" cy="60" r="60" fill="#607989"/>
<path d="M51.5362 66.1082L62.5181 77.4757C62.6988 77.6624 62.7711 77.9335 62.6988 78.1865L58.1627 94.554C58.0301 95.0239 58.3856 95.4937 58.8795 95.4937C59.1567 95.4937 59.4097 95.3431 59.5362 95.0962L68.5723 77.9034C68.7048 77.6564 68.6807 77.3492 68.5181 77.1203L58.6988 63.6022C58.5181 63.3552 58.2109 63.2468 57.9157 63.3191L51.8856 64.8672C51.3374 65.0058 51.1446 65.6926 51.5362 66.1022V66.1082Z" fill="white"/>
<path d="M43.1386 59.6022L34.994 73.4817C34.9097 73.6323 34.7711 73.7407 34.6085 73.807L19.0783 79.7829C18.7229 79.9215 18.5241 80.2829 18.6085 80.6564L18.7591 81.3432C18.8615 81.807 19.3494 82.1082 19.8193 82.0058L40.1747 77.4335C40.3554 77.3913 40.5181 77.295 40.6265 77.1504L51.0241 63.6745C51.3313 63.2769 51.1627 62.6926 50.6807 62.4576L44.2229 59.307C43.8193 59.1082 43.3434 59.2347 43.1326 59.5962L43.1386 59.6022Z" fill="white"/>
<path d="M33.7229 40.7407L50.9699 39.6323C51.2711 39.6142 51.5181 39.8793 51.482 40.1865L50.7832 45.9636C50.753 46.2287 50.5181 46.4275 50.253 46.3974L35.1687 44.9576C35.0482 44.9456 34.9277 44.9817 34.8314 45.054L27.7169 50.554C27.5964 50.6504 27.4338 50.6805 27.2892 50.6383L25.988 50.2528C25.6446 50.1504 25.5241 49.7106 25.7651 49.4395L33.3976 40.8913C33.4819 40.795 33.6024 40.7347 33.7289 40.7287L33.7229 40.7407Z" fill="white"/>
<path d="M79.994 62.6624L64.5121 56.4817C64.2289 56.3673 64.1205 56.0239 64.2892 55.7588L67.3976 50.8432C67.5422 50.6142 67.8374 50.542 68.0603 50.6745L80.5603 58.1444C80.994 58.4034 81.5061 58.4877 82 58.3793L89.4579 56.7528C90.0783 56.6203 90.7289 56.7889 91.1988 57.2106L91.6386 57.6022C91.9097 57.8432 91.8253 58.2889 91.488 58.4335L81.488 62.6383C81.0121 62.8371 80.4699 62.8432 79.988 62.6504L79.994 62.6624Z" fill="white"/>
<path d="M66.5362 33.1323C63.2952 32.9757 60.5422 35.5359 60.3795 38.8492C60.2169 42.1685 62.7109 44.9817 65.9458 45.1444C69.1868 45.301 71.9398 42.7407 72.1085 39.4275C72.2711 36.1082 69.7771 33.295 66.5362 33.1323Z" fill="white"/>
<path d="M80.5319 95.4474C83.5269 95.0786 85.6558 92.3518 85.287 89.3568C84.9182 86.3618 82.1913 84.2329 79.1964 84.6017C76.2014 84.9705 74.0724 87.6973 74.4412 90.6923C74.81 93.6873 77.5369 95.8162 80.5319 95.4474Z" fill="white"/>
</svg>
