<svg width="120" height="120" viewBox="0 0 120 120" fill="none" xmlns="http://www.w3.org/2000/svg">
<circle cx="60" cy="60" r="60" fill="#607989"/>
<path d="M60.5047 70.6689L71.4967 80.384C71.6781 80.5436 71.7724 80.7976 71.7362 81.0515L69.4144 97.3546C69.3491 97.8262 69.7119 98.2325 70.1545 98.1817C70.4011 98.1527 70.6116 97.9713 70.6986 97.7246L76.9456 80.1083C77.0327 79.8544 76.9819 79.5642 76.815 79.361L66.6356 67.4402C66.4469 67.2226 66.1639 67.15 65.9027 67.2589L60.6861 69.4428C60.2072 69.6387 60.1129 70.3207 60.5047 70.6689Z" fill="white"/>
<path d="M52.3277 65.3434L46.5306 79.6657C46.4726 79.8181 46.3565 79.9414 46.2186 80.0213L32.9991 87.5597C32.6944 87.7338 32.5565 88.1039 32.6726 88.4521L32.883 89.0979C33.0209 89.5332 33.4925 89.7726 33.8988 89.613L51.5732 82.8799C51.7328 82.8219 51.8634 82.7058 51.9432 82.5534L59.7936 68.3689C60.0258 67.9554 59.8154 67.4112 59.3583 67.2371L53.2637 64.9371C52.8864 64.792 52.4728 64.9661 52.3205 65.3362L52.3277 65.3434Z" fill="white"/>
<path d="M70.6406 61.5343L80.6024 49.5772C80.7765 49.3668 80.6967 49.0403 80.4282 48.8952L75.4582 46.2034C75.226 46.0801 74.9503 46.1454 74.8342 46.3485L68.0359 58.1387C67.9778 58.233 67.8907 58.2983 67.7819 58.3346L59.6558 60.475C59.5179 60.5113 59.4091 60.6128 59.3656 60.7434L58.9883 61.9043C58.8867 62.2163 59.1769 62.5428 59.5179 62.5138L70.3504 61.6866C70.4737 61.6794 70.5825 61.6213 70.6551 61.5343H70.6406Z" fill="white"/>
<path d="M42.9029 37.6057L57.7403 35.0808C58.0088 35.0372 58.27 35.2694 58.2772 35.5669L58.4731 41.1391C58.4804 41.4003 58.299 41.6035 58.0596 41.6035H44.7965C44.3394 41.6035 43.9114 41.7848 43.5921 42.1186L38.8108 47.1176C38.4117 47.5312 37.8385 47.7126 37.2653 47.5965L36.7284 47.4877C36.4019 47.4224 36.2351 47.016 36.4165 46.7331L41.7783 38.3603C42.0322 37.9612 42.4385 37.6927 42.9029 37.6129V37.6057Z" fill="white"/>
<path d="M79.5938 40.7981C77.5841 43.0328 74.3409 43.9325 71.3589 42.8224C67.4482 41.3713 65.4529 37.0252 66.904 33.1145C68.3551 29.2038 72.7011 27.2086 76.6118 28.6597C79.855 29.8641 81.785 33.0637 81.5166 36.3505C80.5008 35.1896 78.3314 33.8691 77.1488 33.2306C75.6033 32.3962 73.9563 33.9852 73.6951 35.654C73.4267 37.3227 74.9794 37.8959 77.2286 38.0192C78.9554 38.1208 79.4632 39.9492 79.6084 40.7981H79.5938Z" fill="white"/>
<path d="M38.2231 58.4797C35.3862 58.4797 33.0717 56.1725 33.0717 53.3283C33.0717 50.4842 35.3789 48.1769 38.2231 48.1769C41.0672 48.1769 43.3745 50.4842 43.3745 53.3283C43.3745 56.1725 41.0672 58.4797 38.2231 58.4797ZM38.2231 49.0331C35.8578 49.0331 33.9278 50.9558 33.9278 53.3283C33.9278 55.7009 35.8505 57.6236 38.2231 57.6236C40.5956 57.6236 42.5183 55.7009 42.5183 53.3283C42.5183 50.9558 40.5956 49.0331 38.2231 49.0331Z" fill="white"/>
</svg>
