<svg width="121" height="120" viewBox="0 0 121 120" fill="none" xmlns="http://www.w3.org/2000/svg">
<circle cx="60.9398" cy="60" r="60" fill="#607989"/>
<path d="M104.651 83.8975L18.1987 83.0301C17.9457 83.0301 17.7349 82.8192 17.7349 82.5602V75.8433C17.7349 75.5843 17.9457 75.3734 18.2047 75.3734H104.657C104.916 75.3734 105.126 75.5843 105.126 75.8433V83.4277C105.126 83.5542 105.078 83.6747 104.988 83.759C104.898 83.8433 104.783 83.8915 104.657 83.8915L104.651 83.8975ZM18.6686 82.1024L104.187 82.9578V76.3132H18.6686V82.1024Z" fill="white"/>
<path d="M57.7951 72.9397V65.8554C57.7951 65.6988 57.9276 65.5783 58.0843 65.5903L79.5059 67.6506H79.518L99.7469 70.771C99.8734 70.7891 99.9698 70.9036 99.9698 71.0301V71.2409C99.9698 71.3855 99.8553 71.5 99.7108 71.506L79.5481 72.1024L58.0662 73.1988C57.9156 73.2048 57.7891 73.0843 57.7891 72.9337L57.7951 72.9397Z" fill="white"/>
<path d="M43.9999 43.7289L38.3072 49.7168L37.7529 50.3012L36.7168 51.3975L36.53 51.5963L35.3192 52.8734L32.3192 56.0301C32.1806 56.1747 32.0059 56.265 31.8312 56.3012C31.5481 56.3554 31.2409 56.2771 31.018 56.0662C30.6505 55.7168 30.6325 55.1325 30.9819 54.771L42.6746 42.4638C43.024 42.0963 43.6084 42.0843 43.9758 42.4337C44.3433 42.7771 44.3553 43.3674 44.0059 43.7289H43.9999Z" fill="white"/>
<path d="M30.5421 63.759C26.9578 63.759 23.7409 61.2228 23.024 57.5783C22.6264 55.5722 23.0361 53.5301 24.1746 51.8253C25.3132 50.1265 27.0481 48.9698 29.0541 48.5722C31.2891 48.1265 33.5843 48.6927 35.3614 50.1265C35.5361 50.265 35.6987 50.4096 35.8373 50.5482C36.1264 50.8192 36.4035 51.1325 36.6686 51.4879C36.7108 51.5421 36.7529 51.6024 36.8011 51.6686C37.4276 52.5481 37.8553 53.5421 38.0662 54.6084C38.6385 57.5 37.5361 60.4096 35.1867 62.1927C35.1023 62.259 35.024 62.3132 34.9457 62.3614C34.0782 62.9819 33.0963 63.4036 32.03 63.6144C31.53 63.7108 31.0361 63.759 30.5481 63.759H30.5421ZM30.5481 50.4638C30.1806 50.4638 29.8132 50.5 29.4457 50.5722C27.9698 50.8614 26.6987 51.7108 25.8674 52.9578C25.03 54.2048 24.7288 55.7048 25.024 57.1807C25.6264 60.2228 28.5903 62.2108 31.6325 61.6144C32.4216 61.4578 33.1445 61.1445 33.7831 60.6807L33.8614 60.6265C33.8614 60.6265 33.9096 60.5903 33.9397 60.5722H33.9517C35.6746 59.253 36.4879 57.1204 36.0662 54.9939C35.9156 54.2108 35.6023 53.4879 35.1385 52.8373C35.1023 52.7891 35.0782 52.7469 35.0481 52.7108C34.8433 52.4397 34.6445 52.2168 34.4397 52.0241L34.4216 52.006C34.3252 51.9096 34.2108 51.8132 34.0843 51.7108C33.0722 50.8975 31.8312 50.4638 30.5541 50.4638H30.5481Z" fill="white"/>
<path d="M43.8794 47.6084C42.8734 47.6084 41.8855 47.3132 41.03 46.7409C39.8915 45.9759 39.1144 44.8132 38.8493 43.4698C38.3011 40.6927 40.1144 37.9879 42.8915 37.4337C45.6686 36.8855 48.3734 38.6987 48.9276 41.4759C49.4758 44.253 47.6626 46.9578 44.8855 47.512C44.5481 47.5783 44.2108 47.6084 43.8794 47.6084ZM43.8915 38.6987C43.6505 38.6987 43.4035 38.7228 43.1565 38.771C41.1144 39.1747 39.7831 41.1686 40.1867 43.2108C40.3794 44.1988 40.9517 45.0542 41.7891 45.6144C42.6264 46.1747 43.6325 46.3795 44.6204 46.1807C46.6626 45.7771 47.9939 43.7831 47.5903 41.7409C47.2349 39.9457 45.6505 38.6987 43.8855 38.6987H43.8915Z" fill="white"/>
<path d="M32.8855 68.6927C32.8855 71.0241 30.9939 72.9156 28.6626 72.9156C27.6264 72.9156 26.6746 72.5421 25.9457 71.9216C25.03 71.1506 24.4457 69.9939 24.4457 68.6988C24.4457 67.8253 24.7108 67.018 25.1626 66.3433C25.2469 66.2168 25.3373 66.1024 25.4337 65.9819C26.0722 65.2228 26.9698 64.6927 27.9939 64.5301C28.2108 64.4939 28.4337 64.4759 28.6626 64.4759C30.9939 64.4759 32.8855 66.3674 32.8855 68.6988V68.6927Z" fill="white"/>
<path d="M41.8915 68.8253L34.5903 69.271L35.7831 62.265C35.8493 62.2289 35.9156 62.1747 35.9879 62.1265C38.1867 60.4578 39.3734 57.6144 38.8011 54.7108C38.5963 53.6385 38.1566 52.6747 37.5602 51.8373L37.6264 51.4698L38.6686 50.3795L39.2168 49.7951L41.8132 68.2349L41.8915 68.8192V68.8253Z" fill="white"/>
<path d="M46.5421 67.3313L41.5843 68.4397L41.1746 60.8915L40.9035 48.3433L41.8312 47.3554L44.3433 59.0903L46.5421 67.3313Z" fill="white"/>
</svg>
