<svg width="120" height="120" viewBox="0 0 120 120" fill="none" xmlns="http://www.w3.org/2000/svg">
<circle cx="60" cy="60" r="60" fill="#607989"/>
<path d="M33.4311 41.2254L46.3056 51.2335C46.5424 51.4156 46.8522 51.4521 47.1254 51.3306L60.3643 45.2335C60.8076 45.0331 60.9595 44.4804 60.6922 44.0735L60.3643 43.5756C60.1821 43.2962 59.842 43.1626 59.5141 43.2416L48.0546 46.0472C47.7692 46.1201 47.4655 46.0229 47.2712 45.7982L39.0971 36.4399C38.8177 36.1181 38.338 36.0756 38.004 36.3428L33.425 39.9804C33.0242 40.3023 33.0242 40.9096 33.4311 41.2254Z" fill="white"/>
<path d="M48.4979 30.361C46.7671 32.7658 43.4149 33.3124 41.0101 31.5816C38.6052 29.8509 38.0586 26.4986 39.7894 24.0938C41.5202 21.6889 44.8724 21.1424 47.2773 22.8731C49.6821 24.6039 50.2287 27.9561 48.4979 30.361Z" fill="white"/>
<path d="M41.7084 36.1241L42.2064 40.861C42.255 41.2982 42.6437 41.614 43.0748 41.5654L54.4493 40.3934C54.6558 40.3752 54.8441 40.2719 54.9777 40.114L62.0222 31.7213C62.3684 31.3084 62.2105 30.6828 61.7186 30.4764L61.3724 30.3367C61.1234 30.2335 60.8319 30.2638 60.6133 30.4217L52.0991 36.446C51.9291 36.5614 51.7287 36.616 51.5222 36.5857L42.6133 35.2497C42.0971 35.1707 41.6538 35.6019 41.7084 36.1181V36.1241Z" fill="white"/>
<path d="M89.5931 46.8853L85.8036 41.6201L85.6639 41.4015L84.2429 37.7335L81.1639 31.7517L80.9635 31.4784L78.4736 29.195C78.1578 28.9035 77.6963 28.8549 77.3319 29.0796C76.9675 29.3043 76.7914 29.7294 76.9068 30.1363C76.9493 30.3063 76.8522 30.4096 76.8097 30.446C76.7671 30.4824 76.6518 30.5614 76.4878 30.4946L74.7752 29.7355C74.4716 29.6019 74.1437 29.6322 73.8704 29.8084C73.5971 29.9905 73.4271 30.2942 73.4271 30.616C73.4271 30.8225 73.4939 31.0229 73.6335 31.193C73.6335 31.193 73.6518 31.2173 73.6396 31.2416C73.6335 31.2598 73.6214 31.2658 73.6153 31.2658L70.0809 32.0978L69.7348 32.2375L61.9493 37.278C61.8279 37.3509 61.7186 37.4602 61.6457 37.5877L55.8765 46.9703C55.8765 46.9703 55.8522 47.0007 55.8461 47.0189L50.6659 54.3671C50.6659 54.3671 50.6659 54.3671 50.6599 54.3671L40.1416 59.0189C40.0263 59.0675 39.923 59.1403 39.838 59.2314L41.5445 59.3954L51.0364 55.199C51.2003 55.1262 51.3279 55.0108 51.425 54.8711L56.6113 47.5108L62.4291 38.0492L70.1599 33.0452L70.2935 32.9905L73.8157 32.1525C74.1315 32.0796 74.3866 31.8549 74.4898 31.5452C74.5991 31.2355 74.5445 30.8954 74.3441 30.6343C74.3319 30.6221 74.3319 30.616 74.3319 30.616C74.3319 30.6039 74.3441 30.5857 74.3623 30.5735C74.3684 30.5735 74.3744 30.5614 74.3987 30.5735L76.1113 31.3326C76.5424 31.5209 77.0344 31.4541 77.3927 31.1444C77.7509 30.8407 77.9028 30.3671 77.7813 29.9055C77.7813 29.8873 77.7692 29.8752 77.7935 29.863C77.8178 29.8448 77.8299 29.863 77.842 29.8691L80.253 32.0675L80.3623 32.2132L83.3623 38.025L84.8441 41.8326L85.0445 42.1424L88.8704 47.4622L88.919 47.5169C88.919 47.5169 88.9372 47.5594 88.919 47.5837L87.2914 50.7598C87.2914 50.7598 87.2611 50.7658 87.2489 50.7598L81.2003 46.4237L80.842 46.2476L74.2408 44.5654C73.8097 44.4501 73.3603 44.6505 73.1538 45.0452L69.17 52.7092C69.085 52.8914 69.0546 53.0978 69.085 53.2739L70.9493 66.1424V66.1606L70.9311 66.2092L70.5303 72.0999C70.4331 72.5128 70.6153 72.9318 70.9736 73.1444L76.9554 78.1302L77.004 78.1545C77.004 78.1545 77.0222 78.1727 77.0222 78.1849L77.842 84.027C77.8663 84.2031 77.9392 84.3731 78.0424 84.5007L82.2145 89.7051C82.2145 89.7051 82.2145 89.7112 82.2145 89.7233L82.9736 100.169C82.9736 100.169 82.9736 100.199 82.9554 100.211C82.9372 100.223 82.925 100.211 82.9129 100.211L79.9615 98.2679C79.9615 98.2679 79.9372 98.2436 79.9372 98.2314L78.9595 91.3084C78.9291 91.114 78.8441 90.9379 78.7105 90.7922L74.0101 85.8124L73.9797 85.6667L70.6153 82.5391C70.506 82.2841 70.2874 82.0776 70.0202 81.9926L61.5303 78.2335L61.4696 78.2092C61.336 78.1727 61.2024 78.1606 61.0566 78.1849L49.3724 80.4136L47.7145 81.6586L61.1963 79.0897H61.2084L69.674 82.8367L69.7408 82.861C69.7408 82.861 69.7712 82.8792 69.7773 82.9035L69.8076 83.0371L73.1599 86.1525C73.2024 86.2618 73.2692 86.359 73.3481 86.4379L78.0424 91.4177C78.0424 91.4177 78.0546 91.4298 78.0546 91.442L79.0263 98.3468C79.0566 98.6201 79.2084 98.863 79.4453 99.027L82.4028 100.97C82.5607 101.08 82.7489 101.128 82.9311 101.128C83.0951 101.128 83.2651 101.086 83.4109 100.995C83.7267 100.806 83.9088 100.466 83.8785 100.096L83.1133 89.6383C83.089 89.4379 83.0161 89.2557 82.9068 89.1282L78.7347 83.9298L77.9088 78.0634C77.8663 77.778 77.6963 77.5229 77.4473 77.3711L71.502 72.4156L71.4594 72.3853L71.4109 72.361C71.4109 72.361 71.3866 72.3246 71.3926 72.3124L71.4048 72.2638L71.8056 66.3731C71.836 66.2517 71.836 66.1302 71.8238 66.0148L69.9594 53.1403V53.1161L73.9372 45.4703C73.9372 45.4703 73.9554 45.4399 73.9858 45.4521L80.508 47.1161L80.6781 47.195L86.6963 51.5067C87.1214 51.8043 87.6983 51.7193 88.0141 51.3063L89.6599 48.0877C89.9088 47.7173 89.8724 47.2314 89.5688 46.9035L89.5931 46.8853Z" fill="white"/>
</svg>
