<svg width="121" height="120" viewBox="0 0 121 120" fill="none" xmlns="http://www.w3.org/2000/svg">
<circle cx="60.3494" cy="60" r="60" fill="#607989"/>
<path d="M22.5967 47.8676C22.4943 47.464 22.5786 46.0965 22.5786 46.0965L23.8015 38.6327C23.922 38.0423 24.3497 37.5664 24.928 37.4038L31.5003 35.5122L30.7473 32.5303L24.7955 34.211C23.3075 34.6327 22.181 35.8556 21.8798 37.3676C21.2654 40.4339 20.6328 43.3435 20.2352 45.5062L22.5967 47.8676Z" fill="white"/>
<path d="M70.8015 71.6327L85.0485 68.5182C86.422 68.211 87.5063 67.1749 87.8798 65.8255L89.5123 59.8375L86.5425 59.1628L84.7774 65.5243C84.6208 66.0905 84.1629 66.5363 83.5846 66.6628L77.6931 67.3616" fill="white"/>
<path d="M47.8196 73.7953C42.5545 73.9158 37.8136 74.6508 34.3376 75.8797C32.5846 76.4941 31.4762 77.2652 31.0726 78.1809C30.8136 78.7592 30.8919 80.0965 31.0244 80.723C31.181 81.4459 32.0063 83.0423 32.8497 83.0423H46.7654V88.2712H30.0605C29.5003 88.2712 29.0485 88.723 29.0485 89.2833C29.0485 89.8435 29.5003 90.2953 30.0605 90.2953H73.1569C73.4943 90.2953 73.8256 90.1929 74.1087 90.0122L77.5846 87.717C78.0726 87.3977 78.181 86.723 77.8256 86.2652C77.5063 85.8435 76.9099 85.7532 76.4702 86.0423L73.175 88.2712H65.9401V83.0423H68.6027C69.6328 83.0423 71.0545 82.3556 71.6148 81.9399C72.4702 81.3255 72.8738 80.4158 72.8075 79.2893C72.687 77.3435 71.1991 76.2893 67.0184 75.199C64.9702 74.6688 62.5967 74.2712 59.8858 74.0062C57.5907 73.7773 52.1931 73.6869 47.8196 73.7953ZM64.3858 88.2773H48.2352V83.0483H64.3858V88.2773Z" fill="white"/>
<path d="M103.85 90.5724H99.6027C99.2473 90.5724 98.9581 90.2893 98.9581 89.9279V88.5483C98.9581 88.1929 99.2413 87.9038 99.6027 87.9038H103.85C104.205 87.9038 104.494 88.1869 104.494 88.5483V89.9279C104.494 90.2833 104.211 90.5724 103.85 90.5724Z" fill="white"/>
<path d="M20.7111 58.2953L33.669 70.2411C33.8979 70.452 34.2714 70.3736 34.4461 70.0845L37.7714 64.6146C37.928 64.3616 37.8678 64.0423 37.6449 63.8977L24.6931 55.5423C24.5907 55.4761 24.5184 55.3676 24.4883 55.2411L22.5304 45.9218C22.4943 45.7592 22.3919 45.6327 22.2473 45.5785L20.9521 45.0845C20.6087 44.952 20.2172 45.2592 20.2292 45.6508L20.5545 57.9459C20.5545 58.0845 20.6148 58.211 20.7051 58.2953H20.7111Z" fill="white"/>
<path d="M67.9702 71.6327L54.1991 61.8676C53.9461 61.6869 53.928 61.3014 54.1569 61.0544L58.422 56.4821C58.6208 56.2712 58.928 56.2532 59.1208 56.4459L69.6328 66.958C69.9943 67.3194 70.4822 67.5182 70.9943 67.5062L78.7473 67.3315C79.3919 67.3194 79.9883 67.6327 80.3557 68.1809L80.6931 68.6869C80.8979 69.0002 80.7111 69.458 80.3437 69.5363L69.4521 71.9218C68.928 72.0363 68.3979 71.9279 67.9702 71.6267V71.6327Z" fill="white"/>
<path d="M46.175 55.9158C49.187 55.9158 51.6268 53.4761 51.6268 50.464C51.6268 47.452 49.187 45.0122 46.175 45.0122C43.1629 45.0122 40.7232 47.452 40.7232 50.464C40.7232 53.4761 43.1629 55.9158 46.175 55.9158Z" fill="white"/>
</svg>
