<svg width="120" height="120" viewBox="0 0 120 120" fill="none" xmlns="http://www.w3.org/2000/svg">
<circle cx="60" cy="60" r="60" fill="#607989"/>
<path d="M65.6602 73.8376L78.2144 82.6388C78.4253 82.7834 78.5397 83.0304 78.5156 83.2834L77.2144 99.699C77.1783 100.175 77.6 100.554 78.0699 100.464C78.3349 100.416 78.5458 100.223 78.6241 99.9641L84.0578 81.928C84.1361 81.6629 84.0578 81.3798 83.859 81.193L72.0156 70.1328C71.7988 69.934 71.4855 69.8798 71.2144 70.0063L65.7566 72.5966C65.2566 72.8316 65.2024 73.5183 65.6542 73.8376H65.6602Z" fill="white"/>
<path d="M56.112 75.3256L54.4915 89.8195C54.4735 89.9761 54.4072 90.1207 54.3048 90.2292L44.3289 100.88C44.1 101.127 44.0699 101.494 44.2566 101.777L44.606 102.295C44.841 102.639 45.3229 102.717 45.6482 102.452L59.8169 91.193C59.9434 91.0906 60.0337 90.952 60.0699 90.7954L63.5638 75.8135C63.6662 75.3737 63.341 74.9521 62.8952 74.934L56.853 74.693C56.4735 74.681 56.1542 74.9581 56.112 75.3316V75.3256Z" fill="white"/>
<path d="M51.7084 67.8255L66.0277 64.1629C66.2867 64.0966 66.4916 63.8918 66.5518 63.6268L69.5397 50.7533C69.6422 50.3255 69.3349 49.9039 68.8952 49.8737L68.353 49.8316C68.0518 49.8075 67.7687 49.9761 67.6422 50.2533L63.2867 60.0183C63.1783 60.2653 62.9373 60.428 62.6723 60.446L51.4253 61.1027C51.0397 61.1268 50.7446 61.446 50.7506 61.8316L50.8169 67.1328C50.8169 67.5966 51.2626 67.934 51.7144 67.8195L51.7084 67.8255Z" fill="white"/>
<path d="M52.6542 59.0605L56.3289 61.3376C56.6662 61.5484 57.106 61.44 57.3168 61.1087L62.7988 52.3135C62.8952 52.1569 62.9313 51.9641 62.8891 51.7834L60.7867 42.0725C60.6843 41.5966 60.1482 41.3617 59.7265 41.6027L59.4373 41.7713C59.2265 41.8918 59.0879 42.1147 59.0759 42.3617L58.6602 51.8075C58.6542 51.9942 58.5699 52.1689 58.4373 52.2954L52.5337 57.934C52.1964 58.2593 52.2506 58.8195 52.6542 59.0665V59.0605Z" fill="white"/>
<path d="M69.4193 32.6087L75.094 46.8496C75.1903 47.0846 75.4012 47.2533 75.6542 47.2954L91.9313 49.8075C92.4012 49.8798 92.6723 50.3798 92.4795 50.8135C92.3711 51.0545 92.1361 51.2171 91.865 51.2352L73.0638 52.3737C72.7928 52.3918 72.5337 52.2533 72.3952 52.0123L64.359 37.946C64.2144 37.687 64.2385 37.3677 64.4193 37.1388L68.1903 32.4219C68.5337 31.9942 69.2144 32.0906 69.4193 32.6027V32.6087Z" fill="white"/>
<path d="M70.1542 30.2412L81.9193 38.8617C82.0458 38.9521 82.1964 39.0002 82.353 39.0002L96.9433 38.8737C97.2807 38.8737 97.5699 39.1027 97.6482 39.428L97.7927 40.0364C97.8891 40.446 97.618 40.8436 97.2024 40.9099L79.3229 43.7171C79.1602 43.7412 78.9976 43.7171 78.859 43.6328L65.4675 36.0605C65.0759 35.8376 64.9795 35.3135 65.2747 34.9701L69.1903 30.3557C69.4373 30.0665 69.859 30.0183 70.1662 30.2412H70.1542Z" fill="white"/>
<path d="M62.5217 25.5424L59.1301 39.928C59.0699 40.187 58.865 40.3918 58.606 40.4581L45.7928 43.687C45.365 43.7954 44.9434 43.4942 44.9012 43.0545L44.853 42.5123C44.8229 42.2111 44.9916 41.9219 45.2626 41.7954L54.9434 37.2533C55.1843 37.1388 55.347 36.8978 55.359 36.6328L55.7988 25.3798C55.8168 24.9942 56.1301 24.693 56.5096 24.687L61.8108 24.6508C62.2747 24.6508 62.6241 25.0786 62.5156 25.5364L62.5217 25.5424Z" fill="white"/>
<path d="M51.2687 27.6087L54.6783 30.2593C54.9915 30.5002 55.0458 30.9521 54.8048 31.2653L48.4675 39.4701C48.353 39.6207 48.1843 39.7171 48.0036 39.7412L38.1723 41.1569C37.6903 41.2231 37.2807 40.8075 37.359 40.3255L37.4132 39.9942C37.4554 39.7533 37.6181 39.5484 37.8409 39.4521L46.5518 35.7713C46.7205 35.699 46.859 35.5665 46.9313 35.3918L50.1602 27.8918C50.347 27.4581 50.8891 27.3195 51.2626 27.6087H51.2687Z" fill="white"/>
<path d="M50.5088 48.8622C51.8398 50.0592 52.3756 51.9909 51.7144 53.7669C50.8502 56.0961 48.2618 57.2845 45.9327 56.4202C43.6036 55.556 42.4153 52.9675 43.2795 50.6383C43.9968 48.7067 45.9025 47.5572 47.86 47.7171C47.1686 48.3221 46.3821 49.6141 46.0019 50.3185C45.5049 51.239 46.4513 52.2199 47.4451 52.3755C48.439 52.5354 48.7804 51.6106 48.8538 50.271C48.9143 49.2425 50.0033 48.94 50.5088 48.8536V48.8622Z" fill="white"/>
<path d="M42.4748 28.726C44.2335 29.0593 46.0947 28.3149 47.1068 26.7126C48.4358 24.6136 47.8124 21.8345 45.7135 20.5056C43.6145 19.1767 40.8353 19.8002 39.5064 21.8992C38.4046 23.6404 38.6451 25.8528 39.9586 27.313C40.0208 26.3964 40.572 24.9878 40.9018 24.2584C41.3328 23.3053 42.6866 23.4636 43.4126 24.1599C44.1421 24.8536 43.6134 25.6855 42.5924 26.5558C41.8109 27.2272 42.2303 28.2767 42.4679 28.7312L42.4748 28.726Z" fill="white"/>
</svg>
