<svg width="257" height="206" viewBox="0 0 257 206" fill="none" xmlns="http://www.w3.org/2000/svg">
<path fill-rule="evenodd" clip-rule="evenodd" d="M60.0687 145.457C39.8297 146.744 20.7044 141.7 9.88421 127.134C4.85973 120.37 1.62611 111.553 0.903467 100.364C0.10493 81.712 8.29704 64.2581 19.433 50.2597C48.0439 17.7969 78.9029 5.41201 118.765 0.155701C83.2329 11.5558 47.012 35.1817 32.9782 70.3012C26.7278 86.6697 25.0845 111.457 32.9782 125.416C38.7471 135.617 60.0687 145.457 60.0687 145.457Z" fill="#EE746C"/>
<path fill-rule="evenodd" clip-rule="evenodd" d="M158.537 176.245C140.049 202.02 114.033 216.769 88.8085 195.136C75.7462 183.365 69.4808 164.955 67.499 146.412C64.7602 101.106 77.0079 67.3224 100.045 30.8422C84.0213 67.8352 75.7514 113.547 89.9909 148.564C96.8212 164.645 112.378 182.525 127.017 185.299C137.715 187.325 158.537 176.245 158.537 176.245Z" fill="#3AA3E4"/>
<path fill-rule="evenodd" clip-rule="evenodd" d="M238.2 84.379C257.802 109.119 266.297 140.138 242.659 163.875C229.914 176.067 212.479 179.664 195.682 178.558C155.012 173.559 127.205 154.223 98.9096 122.625C128.897 146.652 167.985 163.748 201.558 154.37C217.026 149.745 235.63 135.906 240.672 120.405C244.356 109.077 238.2 84.379 238.2 84.379Z" fill="#2ECC71"/>
</svg>
