<svg width="120" height="120" viewBox="0 0 120 120" fill="none" xmlns="http://www.w3.org/2000/svg">
<circle cx="60" cy="60" r="60" fill="#607989"/>
<path d="M67.672 61.8168C67.8547 58.095 65.0557 54.9333 61.4203 54.7548C57.7849 54.5764 54.6898 57.4488 54.5071 61.1706C54.3244 64.8924 57.1234 68.0541 60.7588 68.2326C64.3942 68.411 67.4893 65.5386 67.672 61.8168Z" fill="white"/>
<path d="M42.1928 65.6901C38.8976 65.6901 35.6024 66.3527 32.5 67.672L22.8434 71.7744L23.3012 72.8527L32.9578 68.7503C38.4819 66.4009 44.6386 66.2383 50.2771 68.2925L54.2289 69.7323C59.9157 71.8045 66.1506 71.7202 71.7771 69.5094L73.9458 68.6539C79.759 66.3708 86.1265 66.4612 91.8675 68.913L101.084 72.8527L101.542 71.7804L92.3253 67.8407C89.3434 66.5696 86.1868 65.8949 82.9458 65.8527C79.7048 65.8045 76.5301 66.3829 73.5121 67.5696L71.3434 68.425C65.9759 70.5335 60.0362 70.6118 54.6205 68.6359L50.6687 67.1961C47.9157 66.1961 45.0482 65.6961 42.1868 65.6961L42.1928 65.6901Z" fill="white"/>
<path d="M62.6386 72.8467H96.2892C97.1386 72.8467 97.8313 73.5395 97.8313 74.3889C97.8313 75.166 97.259 75.8166 96.488 75.919L62.8374 80.3045C61.9157 80.425 61.0964 79.7082 61.0964 78.7744V74.3889C61.0964 73.5395 61.7892 72.8467 62.6386 72.8467Z" fill="white"/>
<path d="M52.6145 43.5216L41.494 59.4071C41.3013 59.6842 41.4097 60.0758 41.729 60.2204L47.6748 62.9252C47.9519 63.0517 48.2712 62.9373 48.4037 62.6722L55.8254 47.371C55.8856 47.2505 55.988 47.1541 56.1206 47.1059C56.5 45.5 53.5 43.0002 52.9579 43.3047C52.8193 43.3288 52.6928 43.4132 52.6085 43.5276L52.6145 43.5216Z" fill="white"/>
</svg>
