<svg width="121" height="120" viewBox="0 0 121 120" fill="none" xmlns="http://www.w3.org/2000/svg">
<circle cx="60.265" cy="60" r="60" fill="#607989"/>
<path d="M61.0697 38.9149C61.0697 35.8389 58.5543 33.3405 55.4575 33.3405C52.3607 33.3405 49.8454 35.8389 49.8454 38.9149C49.8454 41.9908 52.3607 44.4892 55.4575 44.4892C58.5543 44.4892 61.0697 41.9908 61.0697 38.9149Z" fill="white"/>
<path d="M57.779 27.117C57.7488 27.2573 57.6516 27.3806 57.5246 27.4458L49.8844 31.0349C49.7805 31.0882 49.6972 31.1677 49.6522 31.2789L44.2088 44.6379C44.116 44.8691 43.853 44.982 43.6164 44.8904L38.5631 42.9449C38.2915 42.842 38.1826 42.516 38.3334 42.2697L46.8133 28.2047C46.8759 28.0992 46.9766 28.0255 47.0925 27.9954L57.4675 25.3016C57.7948 25.2144 58.1067 25.5097 58.0385 25.8458L57.7848 27.1141L57.779 27.117Z" fill="white"/>
<path d="M54.7164 68.7374L68.225 62.6227C68.4492 62.5185 68.7111 62.5448 68.9099 62.6895L81.9324 71.8574C82.3107 72.1219 82.8342 71.9578 82.9904 71.5222C83.0809 71.2779 83.0243 71.0074 82.8472 70.8147L70.5113 57.409C70.3292 57.2133 70.055 57.139 69.8017 57.2125L54.7628 61.6229C54.4906 61.7055 54.2912 61.9395 54.263 62.2275L53.731 68.046C53.6803 68.5779 54.2252 68.9612 54.7134 68.7424L54.7164 68.7374Z" fill="white"/>
<path d="M47.2303 64.3028L55.728 52.0467C55.8753 51.8329 55.7924 51.5308 55.5485 51.4192L51.005 49.3324C50.7932 49.2348 50.5493 49.3231 50.448 49.5276L44.7767 61.3329C44.7307 61.4258 44.6524 61.5002 44.5511 61.5374C44.2612 62.7764 46.5536 64.705 46.9679 64.4701C47.0738 64.4515 47.1704 64.3864 47.2349 64.2981L47.2303 64.3028Z" fill="white"/>
<path d="M59.9207 81.517C60.0209 81.3327 59.9897 81.1079 59.8383 80.9532L53.2349 71.9148C53.0418 71.7211 52.7197 71.7047 52.508 71.8888L48.2166 75.4995C47.9775 75.6984 47.9813 76.0488 48.2161 76.2445L57.5 83.8837L59.9143 81.5195L59.9207 81.517Z" fill="white"/>
<path d="M68.4869 92.728C68.4869 92.728 68.4774 92.7504 68.4735 92.7593C67.2243 95.242 64.6422 95.8166 64.5321 95.8381C63.0726 96.159 61.7946 95.8706 60.8293 95.0131C59.404 93.742 58.7386 91.2426 59.0438 88.3238C59.4069 84.8855 54.8836 81.5263 54.84 81.4918C54.5816 81.3018 54.5246 80.9392 54.7143 80.6822C54.904 80.4252 55.2676 80.3695 55.526 80.5595C55.7364 80.713 60.6284 84.3517 60.196 88.4474C59.9317 90.9608 60.4666 93.1454 61.5961 94.1525C62.2754 94.7605 63.178 94.9463 64.2732 94.7072C64.2969 94.7015 66.4296 94.2092 67.4237 92.2356C67.5679 91.9486 67.9147 91.8329 68.2032 91.9776C68.4781 92.1165 68.5985 92.4429 68.478 92.7242L68.4869 92.728Z" fill="white"/>
<path d="M68.7056 23L56.7086 29.2053C60.5697 31.7794 74.602 44.6156 75.1867 60.7835C77.8067 62.8519 84.0396 68.4229 88.011 74.1594L76.4277 100.222" stroke="white"/>
</svg>
