<svg width="120" height="120" viewBox="0 0 120 120" fill="none" xmlns="http://www.w3.org/2000/svg">
<circle cx="60" cy="60" r="60" fill="#607989"/>
<path d="M81.4156 50.747C84.1144 50.747 86.3072 48.5603 86.3072 45.8554C86.3072 43.1506 84.1204 40.9639 81.4156 40.9639C78.7108 40.9639 76.524 43.1506 76.524 45.8554C76.524 48.5603 78.7108 50.747 81.4156 50.747Z" fill="white"/>
<path d="M46.6987 50.747C49.3975 50.747 51.5903 48.5603 51.5903 45.8554C51.5903 43.1506 49.4035 40.9639 46.6987 40.9639C43.9939 40.9639 41.8072 43.1506 41.8072 45.8554C41.8072 48.5603 43.9939 50.747 46.6987 50.747Z" fill="white"/>
<path d="M96.2409 70.3072H87.6867C87.6867 70.3072 87.6927 70.2892 87.6987 70.2831L89.3252 66.4337C89.4578 66.1205 89.3252 65.753 89.024 65.5964L75.7891 58.7169C75.5301 58.5783 75.2048 58.6386 75.006 58.8554L68.2168 66.1747L63.1084 59.4217L81.9517 57.1386C82.5301 57.0663 82.9397 56.5301 82.8493 55.9518L82.2831 52.2831C82.1867 51.6566 81.5542 51.2651 80.9517 51.4518L61.6144 57.4578L59.3614 54.4819C59.2409 54.3253 59.0541 54.2289 58.8554 54.2289H57.7951C57.265 54.2289 56.9698 54.8374 57.2951 55.253L66.9397 67.5301L64.7469 69.8916C64.6325 70.0181 64.5782 70.1627 64.5722 70.3133H52.9457C52.9457 70.3133 52.9517 70.2952 52.9578 70.2892L54.5843 66.4398C54.7168 66.1265 54.5843 65.759 54.2831 65.6024L41.0481 58.7229C40.7891 58.5843 40.4638 58.6446 40.265 58.8615L33.4758 66.1807L28.3674 59.4277L47.2108 57.1446C47.7891 57.0723 48.1987 56.5362 48.1084 55.9578L47.5421 52.2892C47.4457 51.6627 46.8132 51.2711 46.2108 51.4578L26.8734 57.4639L24.6204 54.488C24.4999 54.3313 24.3132 54.235 24.1144 54.235H23.0541C22.524 54.235 22.2288 54.8434 22.5541 55.259L32.1987 67.5362L30.006 69.8976C29.8915 70.0241 29.8373 70.1687 29.8313 70.3193H24.1626C24.024 70.3193 23.9096 70.4337 23.9096 70.5723V71.5362C23.9096 71.6747 24.024 71.7892 24.1626 71.7892H35.5421L47.9879 87.6325C48.1686 87.8615 48.4819 87.9398 48.7469 87.8193L48.8252 87.7831C49.1927 87.6145 49.3132 87.1506 49.0662 86.8253L37.6987 71.7892H70.259L82.7048 87.6325C82.8855 87.8615 83.1987 87.9398 83.4638 87.8193L83.5421 87.7831C83.9096 87.6145 84.0301 87.1506 83.7831 86.8253L72.4156 71.7892H96.1867C96.3252 71.7892 96.4397 71.6747 96.4397 71.5362V70.5723C96.4397 70.4337 96.3252 70.3193 96.1867 70.3193L96.2409 70.3072ZM31.7288 70.3072L33.4819 69.1084L34.4276 70.3072H31.7288ZM34.9578 68.0964L40.8433 64.0663C41.0602 63.9217 41.3373 63.9157 41.5602 64.0482L51.5843 70.3012H36.6264L34.9578 68.0904V68.0964ZM66.4517 70.3072L68.2048 69.1084L69.1505 70.3072H66.4517ZM69.6746 68.0964L75.5602 64.0663C75.777 63.9217 76.0541 63.9157 76.277 64.0482L86.3011 70.3012H71.3433L69.6746 68.0904V68.0964Z" fill="white"/>
</svg>
