<svg width="121" height="120" viewBox="0 0 121 120" fill="none" xmlns="http://www.w3.org/2000/svg">
<circle cx="60.4783" cy="60" r="60" fill="#607989"/>
<path d="M62.5973 69.3293C62.5026 69.5123 62.3637 69.6765 62.1744 69.7901L62.1554 69.809L47.6808 78.8612C47.2768 79.1074 47.0685 79.5682 47.1379 80.029L47.3652 81.4998L49.0822 92.8686C49.1769 93.4746 48.7855 94.0554 48.1858 94.1943C48.0596 94.2195 47.9333 94.2258 47.8134 94.2132C47.3463 94.169 46.9422 93.8534 46.7971 93.3863L41.5766 76.273C41.4251 75.7743 41.6208 75.2378 42.0564 74.9537L57.945 64.3487C58.4437 64.0204 59.1065 64.1088 59.4979 64.557L60.3311 65.5417L61.9029 67.3913L62.4521 68.0415C62.774 68.4266 62.8119 68.9379 62.5973 69.3356V69.3293Z" fill="white"/>
<path d="M64.8067 67.4923C64.005 68.0099 63.2664 68.6286 62.5973 69.3293C62.5026 69.5123 62.3637 69.6765 62.1744 69.7901L62.1554 69.809C60.6215 71.5323 59.46 73.6975 58.8161 76.1026L56.5057 78.1857L53.6146 80.7991C53.28 81.0958 53.1475 81.5692 53.28 82.0048L57.137 95.0528C57.3074 95.6209 57.0233 96.2269 56.4742 96.4668L56.4237 96.4794C55.8618 96.7256 55.199 96.492 54.915 95.9492L46.6266 80.0858C46.3867 79.625 46.4814 79.0695 46.8476 78.7034L60.3248 65.5228L60.5015 65.3397C60.9245 64.9168 61.5999 64.8852 62.0607 65.264L64.8004 67.4734L64.8067 67.4923Z" fill="white"/>
<path d="M86.6606 79.9848C86.4081 75.4208 84.6154 71.2104 81.6106 68.1299C78.5617 65.0052 74.6542 63.4144 70.5889 63.6354C67.8935 63.7869 65.4064 64.7274 63.2854 66.2614C62.8056 66.6023 62.3448 66.981 61.9029 67.385C60.4447 68.7169 59.2138 70.3645 58.2922 72.2204C57.3832 74.0384 56.7708 76.0521 56.512 78.1857C56.3668 79.3094 56.329 80.4582 56.3921 81.6324C56.6383 86.1963 58.431 90.4068 61.4421 93.4999C63.9545 96.0754 67.0855 97.6157 70.3869 97.9376C71.075 98.007 71.7631 98.0134 72.4701 97.9818C79.9315 97.5778 85.8084 91.0759 86.6038 82.9391C86.6985 81.9732 86.7174 80.9885 86.6669 79.9785L86.6606 79.9848ZM72.3565 96.107C68.853 96.2964 65.4442 94.9013 62.793 92.1869C60.0975 89.4283 58.5005 85.6471 58.2669 81.5377C58.1596 79.6439 58.3679 77.807 58.8161 76.1089C59.46 73.6975 60.6215 71.5386 62.1554 69.8153C62.2943 69.6512 62.4458 69.4934 62.5973 69.3356C63.2601 68.6349 64.005 68.0163 64.8067 67.4986C66.5489 66.3434 68.5437 65.6491 70.6836 65.5291C71.2833 65.4913 71.883 65.5039 72.4638 65.5607C75.336 65.8447 78.0567 67.1893 80.2597 69.4492C81.6043 70.819 82.6711 72.4603 83.4476 74.2593C84.2114 76.0584 84.6659 78.0342 84.7795 80.0858C85.2403 88.5256 79.6664 95.7093 72.3565 96.1133V96.107Z" fill="white"/>
<path d="M54.4541 60.5296L68.6131 53.7689C68.8593 53.649 68.9224 53.3144 68.7394 53.0745L65.318 48.5169C65.1602 48.3086 64.8761 48.2454 64.6804 48.3843L53.4883 56.3255C53.4 56.3886 53.2863 56.4138 53.1727 56.3949L44.8276 54.9304C44.6824 54.9052 44.5435 54.9493 44.4488 55.0503L43.6092 55.953C43.3883 56.1929 43.5082 56.6158 43.8365 56.7358L54.107 60.5359C54.2206 60.5801 54.3468 60.5738 54.4478 60.5233L54.4541 60.5296Z" fill="white"/>
<path d="M51.8913 56.9125L61.7072 45.3354C61.884 45.1271 61.8209 44.7799 61.562 44.6157L56.8277 41.5857C56.6067 41.4469 56.3353 41.4974 56.209 41.7057L49.3978 53.2134C49.1643 53.6111 48.7855 53.8888 48.3373 53.9961L41.545 55.5743C40.9769 55.7068 40.5287 56.1172 40.333 56.6727L40.15 57.1903C40.0427 57.5059 40.3078 57.8657 40.6424 57.8531L50.6603 57.4996C51.1401 57.4807 51.582 57.2723 51.885 56.9125H51.8913Z" fill="white"/>
<path d="M60.9182 28.0138C63.8472 28.2284 66.0566 31.0375 65.8482 34.2821C65.6399 37.5268 63.1023 39.9824 60.1733 39.7614C57.2443 39.5468 55.0349 36.7377 55.2432 33.4931C55.4515 30.2484 57.9892 27.7929 60.9182 28.0138Z" fill="white"/>
<path d="M37.3851 59.3681C39.746 62.6127 43.382 64.2919 45.503 63.1241C47.624 61.9562 47.4283 58.3833 45.0674 55.1387C42.7065 51.8941 39.0705 50.215 36.9495 51.3828C34.8285 52.5506 35.0242 56.1235 37.3851 59.3681Z" fill="white"/>
</svg>
