<svg width="120" height="120" viewBox="0 0 120 120" fill="none" xmlns="http://www.w3.org/2000/svg">
<circle cx="60" cy="60" r="60" fill="#607989"/>
<path d="M70.7559 69.3793C70.5431 69.3793 70.3155 69.32 70.1175 69.1916L70.0928 69.1817L54.7215 59.6776C54.3009 59.4109 53.7614 59.4307 53.3556 59.7122L52.064 60.6113L42.0622 67.5466C41.5278 67.9171 40.8003 67.8183 40.3846 67.3145C40.3004 67.2058 40.2361 67.0922 40.1916 66.9736C40.0134 66.5093 40.1272 65.9758 40.5033 65.6201L54.3256 52.678C54.7265 52.3026 55.3352 52.2384 55.8004 52.52L73.3145 62.6365C73.8589 62.9527 74.0816 63.6245 73.8441 64.2074L71.914 68.6433C71.7012 69.1274 71.2261 69.399 70.7559 69.3892V69.3793Z" fill="white"/>
<path d="M63.6543 73.0643L70.1868 59.9197C70.7658 58.7539 72.2802 58.3291 73.5669 58.9663L74.7349 59.5443C75.9078 60.1272 78.2238 61.6486 77.6943 62.7106L70.2066 73.9881C69.2515 75.9047 66.7622 76.6061 64.6391 75.554C63.6543 75.0649 63.2138 73.9485 63.6543 73.0594V73.0643Z" fill="white"/>
<path d="M41.4189 40.3781C41.5377 40.3386 41.6663 40.3583 41.7653 40.4275L47.6397 44.5324C47.7188 44.5868 47.8178 44.6115 47.9168 44.6016L60.0267 43.0209C60.2395 42.9912 60.4325 43.1394 60.4622 43.3469L61.1749 47.8618C61.2145 48.1038 61.0215 48.3212 60.779 48.3113L46.8627 47.9606C46.7587 47.9606 46.6647 47.9161 46.5905 47.842L40.2213 41.3611C40.0184 41.1536 40.1025 40.8079 40.3796 40.714L41.4189 40.3732V40.3781Z" fill="white"/>
<path d="M99.3903 59.3615C99.3804 59.2183 99.321 59.0948 99.217 59.0058L85.4443 47.2295C85.2018 47.022 84.8207 47.1159 84.6475 47.4222L81.4307 53.1621C81.2822 53.4289 81.3515 53.7549 81.5891 53.8932L95.2233 61.9894C95.3322 62.0537 95.4113 62.1623 95.441 62.2908L99.3853 59.3615H99.3903Z" fill="white"/>
<path d="M75.0367 28.0584C78.4366 28.2412 81.0447 31.1359 80.8665 34.5295C80.6834 37.923 77.7834 40.5263 74.3835 40.3485C70.9836 40.1657 68.3755 37.271 68.5537 33.8774C68.7368 30.4838 71.6369 27.8806 75.0367 28.0584Z" fill="white"/>
<path d="M22.6428 57.1534C22.2172 57.2967 21.173 58.0327 20.6335 58.5613C19.9258 59.2676 18.8222 60.8237 18.6292 61.4016C18.2927 62.3451 18.2135 63.1898 18.3521 64.2568C18.5797 65.9956 19.1241 66.9885 20.6286 68.3469C22.2568 69.8288 24.0087 71.0094 28.3142 73.5287C31.2539 75.2378 31.6795 75.5144 35.0398 77.8806C36.6383 79.0068 39.2661 80.8444 40.8894 81.9756C48.6542 87.3846 51.3068 89.2765 55.6717 92.5318C57.4533 93.8557 60.1356 95.8217 61.6351 96.8936C63.2584 98.0544 64.9855 99.3981 65.9209 100.218C68.6873 102.634 69.9839 103.251 71.82 102.999C73.1215 102.821 74.0618 102.322 75.2347 101.176C76.7045 99.7438 78.1545 97.4469 78.2684 96.3749C78.3475 95.6192 78.1051 94.6855 77.6547 94.0286C77.046 93.1246 75.6207 92.2256 71.8546 90.3633C66.9107 87.9033 60.7344 84.4356 56.3002 81.615C46.0461 75.0847 35.5544 66.6328 30.4274 60.7644C28.1608 58.171 26.6662 57.109 24.9886 56.9015C24.5135 56.8422 23.1476 56.9904 22.6378 57.1534H22.6428Z" fill="white"/>
</svg>
