<svg width="120" height="120" viewBox="0 0 120 120" fill="none" xmlns="http://www.w3.org/2000/svg">
<circle cx="60" cy="60" r="60" fill="#607989"/>
<path d="M45.0614 59.7927C43.4175 71.0305 41.3055 97.9096 41.2357 99.5136C41.2158 99.9868 41.2805 100.45 41.4499 100.774C41.953 101.72 43.1236 102.084 44.0701 101.581C44.5433 101.332 44.8571 100.943 45.0165 100.415C45.5196 98.7514 48.1547 87.7278 50.9194 75.957C53.1261 67.2995 55.1834 64.5897 57.8384 62.0293C61.0065 58.9757 68.1846 55.9621 70.9193 54.8911C81.8333 50.6072 95.3127 45.327 95.9503 45.0181C96.2442 44.8737 96.5132 44.7143 96.7174 44.515C96.9466 44.2958 97.096 44.0269 97.1857 43.7628C97.5443 42.7566 97.0213 41.6508 96.0151 41.2921C95.8507 41.2323 95.6216 41.1825 95.3825 41.1825C95.1284 41.1776 94.8694 41.2323 94.6502 41.2672C93.918 41.3917 65.0912 47.5935 54.7849 50.5822L45.0614 59.7927Z" fill="white"/>
<path d="M29.0121 53.7818C30.4617 52.3871 32.7381 50.3148 34.1428 48.8354C32.7032 47.1268 31.0694 45.1393 30.5463 43.4855C30.4019 43.0222 30.3122 42.5789 30.2724 42.1605C28.9424 44.1131 23.4579 52.4518 23.1242 53.2439C23.1242 53.2439 23.0146 53.4879 22.9797 53.6224C22.6858 54.6486 23.1491 55.7096 24.0358 56.2177C24.0358 56.2177 24.1703 56.2924 24.24 56.3273C26.4345 58.0099 30.2724 54.9165 29.0121 53.7818Z" fill="white"/>
<path d="M29.4383 40.273C29.6574 40.3278 34.3897 41.4387 34.3897 41.4387L35.1568 39.3067C35.1568 39.3067 34.7583 39.1672 33.762 38.7886C32.9152 38.4698 32.427 37.9368 32.1282 37.2693C31.9937 36.9655 31.894 36.6417 31.8243 36.288C31.7496 35.9194 31.6649 35.5059 31.5802 35.0875C31.4607 34.5196 31.6151 34.2158 31.7695 33.9966C31.914 33.7874 32.1481 33.5632 32.98 33.3889C34.4146 33.095 35.2265 32.9206 35.899 32.7861C36.2676 32.7064 36.3623 32.5421 36.4519 32.3079C36.6213 31.8497 36.4071 31.0975 36.0235 30.3005C35.5802 29.374 35.2763 28.9057 34.3697 28.2283C33.4283 27.5309 32.6014 27.5956 30.2751 28.0838C27.7446 28.6068 27.0721 28.9655 26.4345 30.2258C25.7172 31.6454 25.5279 32.9854 25.9563 35.0875C26.7932 39.1871 28.3125 39.9991 29.4383 40.273Z" fill="white"/>
<path d="M41.7117 40.1605C42.0105 40.29 42.4788 40.4145 43.0267 40.4594C44.3418 40.554 50.1799 40.7383 51.4103 40.6985C52.0628 41.3311 52.8499 42.0733 53.2932 42.4569C53.6817 42.8006 54.2048 42.9949 54.7627 42.965C55.8885 42.8952 56.7502 41.9289 56.6855 40.8031C56.6705 40.5889 56.6257 40.3846 56.5559 40.1954C56.0678 39.0048 55.1512 37.2614 54.6132 36.554C54.1948 35.9862 53.6718 35.7072 52.9694 35.4731C52.4962 35.3087 46.8524 33.6798 43.764 33.2215C43.764 33.2215 43.4053 33.1618 43.0218 33.1867C42.3144 33.2315 41.6718 33.4706 41.1388 33.8492C40.1475 34.5515 39.5249 35.7321 39.5996 37.0322C39.6843 38.427 40.5062 39.6375 41.7117 40.1605Z" fill="white"/>
<path d="M53.1258 48.7546C53.1258 48.7546 51.1931 46.5628 51.0138 46.3736C50.9291 46.2739 50.3861 45.6911 50.2068 45.4969C48.7473 43.9526 46.4061 42.259 46.4061 42.259L37.1707 50.9514C37.1707 50.9514 38.954 53.5217 40.2791 54.9165C40.817 55.4844 40.9515 55.6189 41.1707 55.843C41.2604 55.9327 43.3724 58.0099 43.3724 58.0099L53.1258 48.7546Z" fill="white"/>
</svg>
