<svg width="121" height="120" viewBox="0 0 121 120" fill="none" xmlns="http://www.w3.org/2000/svg">
<circle cx="60.3086" cy="60" r="60" fill="#607989"/>
<path d="M56.5892 67.5948C56.6728 67.7565 56.7955 67.9015 56.9628 68.0019L56.9795 68.0186L69.7658 76.0149C70.1226 76.2323 70.3066 76.6394 70.2453 77.0465L70.0446 78.3457L68.5278 88.3885C68.4442 88.9238 68.7899 89.4368 69.3197 89.5595C69.4312 89.5818 69.5427 89.5874 69.6487 89.5762C70.0613 89.5372 70.4182 89.2584 70.5464 88.8457L75.1579 73.7286C75.2918 73.2881 75.1189 72.8141 74.7341 72.5632L60.6988 63.1952C60.2583 62.9052 59.6728 62.9833 59.3271 63.3792L58.591 64.2491L57.2026 65.8829L56.7174 66.4572C56.433 66.7974 56.3996 67.2491 56.5892 67.6004V67.5948Z" fill="white"/>
<path d="M54.6431 65.9665C55.3513 66.4238 56.0037 66.9703 56.5947 67.5892C56.6784 67.7509 56.8011 67.8959 56.9684 67.9963L56.9851 68.013C58.3401 69.5353 59.3661 71.448 59.9349 73.5725L61.9758 75.4126L64.5297 77.7212C64.8252 77.9833 64.9368 78.4015 64.8252 78.7862L61.4182 90.3123C61.2676 90.8141 61.5185 91.3494 62.0037 91.5613L62.0483 91.5725C62.5446 91.79 63.1301 91.5836 63.381 91.1041L70.7026 77.0911C70.9144 76.684 70.8308 76.1933 70.5074 75.8699L58.6022 64.2268L58.4461 64.0651C58.0724 63.6915 57.4758 63.6636 57.0687 63.9981L54.6486 65.9498L54.6431 65.9665Z" fill="white"/>
<path d="M35.3382 77.0019C35.5613 72.9703 37.1449 69.2509 39.7992 66.5297C42.4925 63.7695 45.9442 62.3643 49.5353 62.5595C51.9163 62.6933 54.1133 63.5242 55.9869 64.8792C56.4107 65.1803 56.8178 65.5149 57.2081 65.8717C58.4962 67.0483 59.5836 68.5037 60.3977 70.1431C61.2007 71.7491 61.7416 73.5279 61.9702 75.4126C62.0985 76.4052 62.1319 77.4201 62.0762 78.4572C61.8587 82.4888 60.275 86.2082 57.6152 88.9405C55.3959 91.2156 52.6301 92.5762 49.7137 92.8606C49.1059 92.9219 48.4981 92.9275 47.8736 92.8996C41.2881 92.5428 36.091 86.7993 35.3884 79.6115C35.3048 78.7584 35.2881 77.8885 35.3327 76.9963L35.3382 77.0019ZM47.9739 91.2435C51.0687 91.4108 54.0799 90.1784 56.4219 87.7807C58.8029 85.3439 60.2137 82.0037 60.42 78.3736C60.5148 76.7007 60.3308 75.0781 59.9349 73.5781C59.3661 71.448 58.3401 69.5409 56.9851 68.0186C56.8624 67.8736 56.7286 67.7342 56.5947 67.5948C56.0092 66.9758 55.3513 66.4294 54.6431 65.9721C53.104 64.9517 51.342 64.3383 49.4516 64.2323C48.9219 64.1989 48.3921 64.21 47.8791 64.2602C45.342 64.5112 42.9386 65.6989 40.9925 67.6952C39.8048 68.9052 38.8624 70.355 38.1765 71.9442C37.5018 73.5335 37.1003 75.2788 36.9999 77.0911C36.5929 84.5465 41.5167 90.8922 47.9739 91.2491V91.2435Z" fill="white"/>
<path d="M45.8773 44.1747L45.2862 48.0223C45.236 48.3569 45.3921 48.6859 45.6877 48.8532L54.6765 58.0093C54.8215 58.0929 54.9944 58.132 55.1617 58.1097L68.7788 56.6989C69.3921 56.6375 69.7156 55.9405 69.3698 55.4275L68.684 54.4238C68.5334 54.2007 68.2825 54.0725 68.0204 54.0669L54.6431 53.961C54.4479 53.961 54.2583 53.8885 54.1133 53.7602L47.2211 43.6784C46.736 43.2546 45.9776 43.5335 45.8773 44.1691V44.1747Z" fill="white"/>
<path d="M56.2379 41.9665L55.039 44.7714C54.9052 45.0836 54.9776 45.4405 55.223 45.6747L58.2732 51.2063C58.3513 51.3569 58.4739 51.4796 58.6301 51.5576L68.9237 56.7323C69.4758 57.0112 70.1226 56.5985 70.1059 55.9796L70.0836 55.1933C70.078 54.9256 69.9386 54.6803 69.7156 54.5353L60.1803 48.3234C60.0185 48.2175 59.8959 48.0558 59.8401 47.8662L57.6654 41.8216C57.3029 41.2918 56.4944 41.3699 56.2434 41.961L56.2379 41.9665Z" fill="white"/>
<path d="M71.5111 50.3309C71.5111 50.3309 73.1171 47.7212 72.7323 44.2807C72.3531 40.8401 75.5092 36.8643 78.0631 36.1729C80.1375 35.6097 81.9553 35.0576 83.9182 37.4108C85.2955 39.0613 86.0762 43.2993 82.591 46.2602C79.1115 49.2268 77.4721 48.1784 75.3029 49.5335C73.1338 50.8885 70.9758 53.5037 70.0724 54.7361C69.4423 55.6004 68.3605 56.8829 67.7639 57.5799C67.5297 57.8532 67.1171 57.8922 66.8327 57.6691C66.5427 57.4405 66.4925 57.0279 66.71 56.7323L71.5111 50.3309ZM76.1394 46.7342C78.2304 48.0669 81.2137 47.1134 82.8085 44.6097C84.3977 42.1059 83.9962 38.9944 81.9052 37.6673C79.8141 36.3346 76.8308 37.2881 75.236 39.7918C73.6468 42.2955 74.0483 45.4015 76.1394 46.7342Z" fill="white"/>
<path d="M51.0018 37.6059C53.9306 37.6059 56.3048 35.2317 56.3048 32.303C56.3048 29.3742 53.9306 27 51.0018 27C48.0731 27 45.6988 29.3742 45.6988 32.303C45.6988 35.2317 48.0731 37.6059 51.0018 37.6059Z" fill="white"/>
</svg>
