<svg width="121" height="120" viewBox="0 0 121 120" fill="none" xmlns="http://www.w3.org/2000/svg">
<circle cx="60.124" cy="60" r="60" fill="#607989"/>
<path d="M102.156 58.9919L95.0655 69.6965C94.9353 69.8886 94.7122 70.0002 94.4767 69.9754C91.0001 70 89.5001 67 92.456 66.275C92.6916 66.2564 92.8899 66.1076 92.9829 65.8907L96.7267 56.8473C96.8568 56.5374 97.2039 56.3824 97.5139 56.5002L101.847 58.0622C102.225 58.1985 102.38 58.6572 102.156 58.9919Z" fill="white"/>
<path d="M86.1089 52.6758C88.1792 55.2791 91.9664 55.7068 94.5697 53.6365C97.173 51.5663 97.6006 47.7791 95.5304 45.1758C93.4601 42.5725 89.673 42.1448 87.0697 44.215C84.4663 46.2853 84.0387 50.0725 86.1089 52.6758Z" fill="white"/>
<path d="M86.4188 57.3741L87.4601 60.9816C87.5531 61.3101 87.3672 61.6572 87.0325 61.7564L78.392 64.2729C78.237 64.3163 78.0696 64.3039 77.9271 64.2233L70.2969 60.1882C69.925 59.9898 69.8506 59.4878 70.1544 59.1903L70.3651 58.9857C70.5201 58.837 70.737 58.775 70.9478 58.8246L78.9436 60.6965C79.0986 60.7336 79.2659 60.7088 79.4023 60.6283L85.5077 57.0146C85.861 56.8039 86.3135 56.9836 86.425 57.3803L86.4188 57.3741Z" fill="white"/>
<path d="M72.9684 60.8576C72.9188 60.8576 72.8692 60.8576 72.8196 60.8514L65.6916 59.9464C65.1895 59.8845 64.8362 59.4258 64.8982 58.9237C64.9601 58.4217 65.4188 58.0683 65.9209 58.1303L73.049 59.0353C73.5511 59.0973 73.9044 59.556 73.8424 60.058C73.7866 60.5105 73.4085 60.839 72.9684 60.8576Z" fill="white"/>
<path d="M64.5821 62.2584C68.5304 62.5064 70.0056 57.089 66.4354 55.3783C66.3796 55.3535 66.3176 55.3225 66.2618 55.2977C64.8114 54.6655 63.4664 54.7832 62.4064 55.1241C60.7887 55.6448 59.7411 57.2254 59.9085 58.9175C60.0325 60.1572 60.5965 61.465 62.3321 61.8927C63.175 62.0973 63.9126 62.215 64.5821 62.2584Z" fill="white"/>
<path d="M64.8548 62.9403C64.7494 62.9403 64.6502 62.9403 64.5387 62.9279C63.8197 62.8845 63.0449 62.7543 62.1709 62.5436C60.4664 62.1283 59.425 60.8638 59.2391 58.9795C59.0407 56.9836 60.2866 55.0931 62.2019 54.4733C63.6833 53.996 65.1399 54.0642 66.5345 54.6717C66.6027 54.7027 66.6647 54.7336 66.7329 54.7646C68.9085 55.8122 69.4354 57.994 68.9953 59.6861C68.5614 61.3349 67.1234 62.9341 64.861 62.9341L64.8548 62.9403ZM64.6254 61.5828C66.423 61.6944 67.3961 60.4485 67.6874 59.3452C67.9664 58.2667 67.737 56.7419 66.1502 55.9795C66.1006 55.9547 66.0511 55.9299 65.9953 55.9113C64.9168 55.4403 63.7825 55.3907 62.6234 55.7626C61.3093 56.1841 60.454 57.4857 60.5903 58.8493C60.7205 60.1696 61.3465 60.9506 62.4994 61.2357C63.2928 61.4279 63.9932 61.5456 64.6316 61.5828H64.6254Z" fill="white"/>
<path d="M55.2349 78.6283V74.6117C55.2349 74.6117 55.2349 74.6117 55.2349 74.6055L41.7101 60.5663C41.7101 60.5663 41.6916 60.5663 41.6916 60.5725V65.0849C41.6916 65.0849 41.6916 65.0973 41.704 65.0973H42.4478C42.4478 65.0973 42.4601 65.0973 42.4601 65.0849V62.4754C42.4601 62.4754 42.4725 62.463 42.4787 62.4692L54.4725 74.9217C54.4725 74.9217 54.4725 74.9217 54.4725 74.9279V78.6345C54.4725 78.6345 54.4725 78.6469 54.4602 78.6469H17.5366C17.3383 78.6469 17.1523 78.7832 17.1275 78.9754C17.0965 79.2109 17.2763 79.4155 17.5056 79.4155H92.3754C92.3754 79.4155 92.3878 79.4155 92.3878 79.4031V78.6593C92.3878 78.6593 92.3878 78.6469 92.3754 78.6469H55.2535C55.2535 78.6469 55.2411 78.6469 55.2411 78.6345L55.2349 78.6283Z" fill="white"/>
</svg>
