<svg width="121" height="120" viewBox="0 0 121 120" fill="none" xmlns="http://www.w3.org/2000/svg">
<circle cx="60.3373" cy="60" r="60" fill="#607989"/>
<path d="M35.193 56.4725L36.5787 40.5323C36.6047 40.2535 36.8818 40.0619 37.159 40.1403L42.3206 41.5863C42.5631 41.6559 42.7017 41.8911 42.641 42.135L39.2375 55.7408C39.2115 55.854 39.2288 55.9673 39.2808 56.0631L43.2992 63.3451C43.3685 63.467 43.3772 63.6238 43.3165 63.7458L42.7883 64.8868C42.6497 65.1917 42.234 65.2352 42.0175 64.9739L35.297 56.7948C35.219 56.7077 35.1844 56.5857 35.193 56.4725Z" fill="white"/>
<path d="M45.4903 24.7053C42.5111 24.5572 39.9736 26.9265 39.8177 30.0013C39.6618 33.0761 41.9655 35.6805 44.9447 35.8286C47.9239 35.9767 50.4614 33.6074 50.6173 30.5326C50.7645 27.4578 48.4695 24.8534 45.4903 24.7053Z" fill="white"/>
<path d="M52.2368 39.6264H79.8377C80.5392 39.6264 81.1021 40.1926 81.1021 40.8981C81.1021 41.534 80.6344 42.074 80.0022 42.1611L52.4014 45.776C51.6479 45.8718 50.9724 45.2795 50.9724 44.513V40.8981C50.9724 40.1926 51.5353 39.6264 52.2368 39.6264Z" fill="white"/>
<path d="M77.7072 42.919C78.1229 43.0757 78.5905 42.8754 78.8071 42.4834C79.2574 41.6995 80.4092 40.0793 82.4704 39.9574C84.9473 39.8093 90.7325 39.9313 91.7458 39.9574C91.867 39.9574 91.9796 39.94 92.0922 39.8964C92.378 39.7919 92.4213 39.7396 92.4992 39.1822C92.5945 38.4853 91.6592 38.3634 91.4426 38.3459C91.4167 38.3459 91.3907 38.3459 91.3647 38.3459L80.8942 38.1195C80.8249 38.1195 80.7557 38.1195 80.695 38.1369C80.1234 38.2676 77.4041 39.0428 77.1962 42.0479C77.1962 42.1611 77.1962 42.2831 77.2395 42.3876C77.3001 42.5618 77.4301 42.797 77.7158 42.9102L77.7072 42.919Z" fill="white"/>
<path d="M53.9083 71.8117C54.0035 71.9946 54.1421 72.1601 54.3326 72.2733L54.35 72.2908L58.2125 74.7123L68.8042 81.3758C69.2026 81.6197 69.4105 82.0901 69.3412 82.5517L69.116 84.0325L67.4013 95.4432C67.306 96.053 67.6957 96.6279 68.2933 96.7759C68.4145 96.8021 68.5444 96.8108 68.6657 96.7934C69.1333 96.7498 69.5404 96.4275 69.6789 95.9572L74.8925 78.7801C75.0398 78.2836 74.8492 77.7348 74.4162 77.4561L58.5589 66.8031C58.0653 66.4721 57.3984 66.568 57.0087 67.0122L54.6098 69.8518L54.0555 70.5051C53.7351 70.8884 53.7004 71.4023 53.9083 71.803V71.8117Z" fill="white"/>
<path d="M51.6999 69.965C52.4966 70.4877 53.2414 71.1061 53.9083 71.8117C54.0035 71.9946 54.1421 72.1601 54.3326 72.2733L54.35 72.2908C55.8829 74.0241 57.0347 76.1931 57.6842 78.6146L62.8718 83.3269C63.2009 83.6231 63.3308 84.1022 63.2096 84.5377L59.3644 97.6383C59.1911 98.2045 59.4769 98.8142 60.0225 99.0581L60.0745 99.0755C60.6374 99.3281 61.2956 99.0842 61.5814 98.5442L69.1247 84.0238L69.8608 82.6214C70.1033 82.1597 70.008 81.6023 69.6443 81.2364L56.1946 67.9965L56.0128 67.8136C55.5971 67.3867 54.9215 67.3606 54.4539 67.7352L51.7172 69.9563L51.6999 69.965Z" fill="white"/>
<path d="M29.8842 82.4994C30.1353 77.9177 31.9281 73.6931 34.9246 70.5922C37.9644 67.4564 41.8703 65.8537 45.932 66.0802C48.6254 66.237 51.1109 67.1777 53.2241 68.7195C53.7004 69.0592 54.1681 69.4424 54.6011 69.8518C56.0561 71.1932 57.2858 72.8395 58.2039 74.7123C59.1132 76.5328 59.7194 78.5536 59.9792 80.7051C60.1265 81.8287 60.1611 82.9872 60.1005 84.1632C59.858 88.7449 58.0653 92.9695 55.0601 96.0791C52.5486 98.6661 49.4308 100.208 46.1312 100.539C45.447 100.609 44.7542 100.617 44.0527 100.582C36.6047 100.173 30.7416 93.6489 29.9448 85.4784C29.8496 84.5116 29.8322 83.5186 29.8842 82.5082V82.4994ZM44.1653 98.6923C47.6641 98.8839 51.0676 97.4815 53.7091 94.7551C56.4025 91.9852 57.996 88.1874 58.2298 84.0673C58.3338 82.1597 58.1259 80.3218 57.6756 78.6146C57.0347 76.1931 55.8742 74.0241 54.3413 72.2908C54.2027 72.1253 54.0555 71.9685 53.8996 71.8117C53.2328 71.1061 52.4966 70.4877 51.6912 69.965C49.9505 68.8065 47.9672 68.1097 45.8194 67.9878C45.2218 67.9529 44.6243 67.9616 44.044 68.0226C41.1774 68.3013 38.4667 69.6602 36.2669 71.9336C34.9246 73.3099 33.8593 74.9562 33.0886 76.7679C32.3264 78.571 31.8674 80.557 31.7548 82.6127C31.2958 91.088 36.8559 98.3003 44.1566 98.701L44.1653 98.6923Z" fill="white"/>
</svg>
