<svg width="120" height="120" viewBox="0 0 120 120" fill="none" xmlns="http://www.w3.org/2000/svg">
<circle cx="60" cy="60" r="60" fill="#607989"/>
<path d="M59.7846 57.8811L76.3776 55.7861C76.421 55.7861 76.4705 55.7737 76.5139 55.7613L87.8321 52.9038C88.3528 52.7613 89.4437 52.284 89.2887 51.7695L89.3693 50.5794C89.2329 50.1332 88.7619 50.1766 88.297 50.2447L75.0077 52.3646C74.9705 52.3646 74.9334 52.3708 74.8962 52.377L60.0449 52.7675C59.5739 52.7799 59.1834 53.1332 59.1276 53.6042L58.7309 56.8212C58.6565 57.4348 59.1772 57.9617 59.797 57.8811H59.7846Z" fill="white"/>
<path d="M47.766 38.1394C47.8776 41.6042 50.7784 44.3191 54.2371 44.2075C57.702 44.096 60.4168 41.1951 60.2991 37.7365C60.1875 34.2716 57.2867 31.5567 53.828 31.6683C50.3631 31.7799 47.6482 34.6807 47.7598 38.1394H47.766Z" fill="white"/>
<path d="M44.3879 44.5794L43.0057 52.0485L53.5553 57.0257L66.8073 52.8109L65.8342 51.0319L52.8363 52.7861L44.3879 44.5794Z" fill="white"/>
<path d="M74.4251 26.1208C75.4106 26.7902 76.3404 27.5526 77.2391 28.346C78.1317 29.1456 78.9809 29.9885 79.7991 30.8749C81.4168 32.6476 82.8734 34.5815 84.0883 36.6642C85.3156 38.7406 86.2763 40.9844 86.9458 43.315C87.6028 45.6518 87.9251 48.0815 87.9127 50.5113C87.9065 51.7261 87.7949 52.941 87.6152 54.1373C87.4292 55.3336 87.1813 56.5237 86.8342 57.6828C86.4871 58.8418 86.0904 59.9885 85.6131 61.098C85.39 61.6621 85.1172 62.0216 84.8631 62.5671C84.7329 62.8398 84.5842 63.1001 84.4478 63.3728C84.3115 63.6394 84.1751 63.9121 84.0201 64.1662C81.6772 68.3811 78.5842 72.1187 75.1317 75.4038C76.7185 73.6187 78.2495 71.7902 79.6441 69.8625C81.0449 67.941 82.3094 65.9266 83.4003 63.8315C83.5429 63.5712 83.6668 63.3047 83.797 63.0381C83.921 62.7716 84.0573 62.5051 84.1813 62.2385C84.4168 61.6993 84.671 61.346 84.8817 60.7943C85.328 59.7034 85.6999 58.5815 86.0098 57.4472C86.3321 56.3129 86.5677 55.16 86.7412 54.0009C86.9148 52.8418 87.0077 51.6704 87.0139 50.4989C87.0449 48.1559 86.7412 45.8067 86.1276 43.5381C85.5263 41.2633 84.609 39.0815 83.4809 37.0113C82.9168 35.9761 82.2846 34.972 81.6152 33.9989C80.9458 33.0195 80.2267 32.0774 79.4643 31.1662C78.7081 30.2489 77.9024 29.3749 77.0656 28.5319C76.6503 28.1104 76.2164 27.6951 75.7763 27.2923C75.3363 26.8894 74.89 26.4927 74.4251 26.1208Z" fill="white"/>
<path d="M75.1317 75.4968C75.0883 75.4968 75.0511 75.4658 75.0387 75.4224L71.047 54.379C70.4272 51.1001 70.421 47.7778 71.0098 44.4989L74.3321 26.1084C74.3383 26.0588 74.3879 26.0278 74.4375 26.034C74.4871 26.0402 74.5181 26.0898 74.5119 26.1394L71.1896 44.5299C70.6007 47.7902 70.6131 51.0939 71.2267 54.348L75.2185 75.3914C75.2247 75.441 75.1937 75.4906 75.1441 75.4968C75.1441 75.4968 75.1317 75.4968 75.1255 75.4968H75.1317Z" fill="white"/>
<path d="M96.4559 50.8798L64.8166 51.3326L64.8199 51.5682L96.4593 51.1153L96.4559 50.8798Z" fill="white"/>
<path d="M95.6358 51.8935L96.0883 51.0071L95.611 50.1332L98.2206 50.9761L95.6358 51.8935Z" fill="white"/>
<path d="M47.6358 71.7096C47.5615 71.8894 47.4437 72.0629 47.2701 72.1931L47.2515 72.2117L43.7619 74.8956L34.1916 82.2716C33.8259 82.5443 33.671 83.0092 33.7825 83.4493L36.8569 95.6042C37.0057 96.1807 36.6834 96.7695 36.1193 96.9617C36.0015 96.9989 35.8838 97.0175 35.766 97.0175C35.3135 97.0175 34.892 96.7509 34.7123 96.317L28.0863 80.3625C27.8941 79.8976 28.0305 79.3584 28.421 79.0485L42.6896 67.3584C43.1358 66.9927 43.7805 67.0237 44.202 67.4142L45.0945 68.2819L46.7805 69.9121L47.3693 70.4885C47.7164 70.8232 47.797 71.3191 47.6358 71.7158V71.7096Z" fill="white"/>
<path d="M49.5821 69.7323C48.8631 70.3088 48.2061 70.972 47.6358 71.7096C47.5615 71.8894 47.4437 72.0629 47.2701 72.1931L47.2515 72.2117C45.9375 74.0154 45.0325 76.1972 44.6358 78.5774L42.6152 80.7964L40.0863 83.5856C39.7949 83.9018 39.7143 84.3666 39.8755 84.7757L44.8094 96.9493C45.0263 97.4761 44.8094 98.0898 44.3073 98.3687L44.2639 98.3873C43.7433 98.6786 43.0863 98.5175 42.7639 98.0216L33.3053 83.5608C33.0325 83.1394 33.0697 82.5939 33.3858 82.2158L45.0945 68.2757L45.2495 68.0836C45.6152 67.6373 46.2598 67.5443 46.7433 67.8666L48.0015 68.6972L49.5883 69.7323H49.5821Z" fill="white"/>
<path d="M71.766 79.6745C71.0904 75.3108 68.9706 71.4307 65.7908 68.7592C62.5677 66.0443 58.6627 64.879 54.7701 65.4803C52.1916 65.8832 49.892 67.0175 47.9953 68.6972C47.5677 69.0691 47.1586 69.4782 46.7743 69.9059C45.4974 71.3253 44.4685 73.0175 43.7619 74.8956C43.0615 76.7241 42.6586 78.7199 42.6152 80.7964C42.578 81.8873 42.6524 83.003 42.8259 84.1187C43.4891 88.4823 45.6152 92.3625 48.8011 95.0464C51.4602 97.284 54.609 98.4679 57.8135 98.4679C58.4767 98.4679 59.14 98.4121 59.8156 98.3129C66.9437 97.222 71.983 90.4162 71.983 82.5257C71.983 81.5898 71.9086 80.6414 71.766 79.6745ZM59.5367 96.5216C56.1834 97.0299 52.7805 96.0133 49.9726 93.6518C47.1214 91.2592 45.2309 87.7695 44.6172 83.846C44.3321 82.0361 44.3631 80.2509 44.6358 78.5712C45.0263 76.1972 45.9375 74.0092 47.2515 72.2055C47.3693 72.0319 47.4995 71.8708 47.6358 71.7034C48.2123 70.9658 48.8631 70.3026 49.5821 69.7261C51.1503 68.4493 52.9974 67.5939 55.0429 67.2778C55.6193 67.1848 56.1896 67.1414 56.7536 67.1414C59.5429 67.1414 62.2825 68.1766 64.6131 70.1476C66.0325 71.3377 67.2164 72.8129 68.1276 74.4741C69.0263 76.129 69.6586 77.9885 69.9561 79.9472C71.1958 88.0175 66.516 95.4431 59.5305 96.5216H59.5367Z" fill="white"/>
</svg>
