<svg width="120" height="120" viewBox="0 0 120 120" fill="none" xmlns="http://www.w3.org/2000/svg">
<circle cx="60" cy="60" r="60" fill="#607989"/>
<path d="M40.9115 70.5113C41.0252 68.2002 39.2825 66.2368 37.019 66.126C34.7556 66.0152 32.8284 67.7989 32.7147 70.1101C32.601 72.4212 34.3437 74.3846 36.6072 74.4954C38.8706 74.6062 40.7978 72.8225 40.9115 70.5113Z" fill="white"/>
<path d="M25.0475 72.9166C22.9958 72.9166 20.9441 73.328 19.0125 74.1473L13 76.6948L13.2851 77.3644L19.2975 74.8169C22.737 73.358 26.5703 73.257 30.081 74.5326L32.5415 75.4266C36.0822 76.7135 39.9643 76.6611 43.4675 75.2882L44.8177 74.757C48.4372 73.3393 52.4018 73.3954 55.9763 74.9179L61.7149 77.3644L62 76.6985L56.2613 74.252C54.4047 73.4627 52.4393 73.0437 50.4214 73.0176C48.4035 72.9876 46.4268 73.3467 44.5477 74.0837L43.1974 74.6149C39.8555 75.9242 36.1572 75.9728 32.7853 74.7458L30.3248 73.8518C28.6107 73.2308 26.8253 72.9203 25.0437 72.9203L25.0475 72.9166Z" fill="white"/>
<path d="M37.7776 77.3606H58.7293C59.2582 77.3606 59.6895 77.7908 59.6895 78.3183C59.6895 78.8009 59.3332 79.2049 58.8531 79.2685L37.9013 81.9918C37.3275 82.0666 36.8174 81.6214 36.8174 81.0416V78.3183C36.8174 77.7908 37.2487 77.3606 37.7776 77.3606Z" fill="white"/>
<path d="M31.5363 59.1505L24.6124 69.015C24.4924 69.1871 24.5599 69.4302 24.7587 69.52L28.4607 71.1996C28.6332 71.2782 28.832 71.2071 28.9145 71.0425L33.5355 61.5408C33.573 61.466 33.6367 61.4062 33.7193 61.3762C33.9555 60.379 32.0876 58.8267 31.7501 59.0158C31.6638 59.0308 31.5851 59.0831 31.5326 59.1542L31.5363 59.1505Z" fill="white"/>
<path d="M89.4473 80.0532L86.4546 78.2345C86.3173 78.1509 86.1403 78.2097 86.0793 78.3584L83.1263 85.2707C83.0836 85.3698 82.989 85.4318 82.8822 85.4318L72.1621 85.3234C72.0188 85.3234 71.9028 85.4349 71.8967 85.5805L71.8845 85.8625C71.8784 85.9957 71.973 86.1165 72.1042 86.1382L84.9628 88.3225C85.0726 88.3411 85.1824 88.2884 85.2343 88.1893L89.5449 80.4157C89.6151 80.2887 89.5723 80.1307 89.4503 80.0563L89.4473 80.0532Z" fill="white"/>
<path d="M94.8622 77.9402C94.7829 77.807 94.609 77.7543 94.4687 77.8256L91.6438 79.2477C91.4882 79.3251 91.4394 79.5203 91.5431 79.6597L95.57 85.1499C95.6371 85.2428 95.6432 85.3667 95.5822 85.4628L93.1843 89.7756C93.102 89.9057 93.1416 90.0761 93.2728 90.1598L93.4223 90.2558C93.5443 90.3364 93.7091 90.3147 93.8067 90.2093L98.8952 85.2118C98.9745 85.122 98.9867 84.9918 98.9257 84.8896L94.8622 77.9371V77.9402Z" fill="white"/>
<path d="M74.624 70.6314C74.7034 70.6593 74.7888 70.6438 74.8559 70.5973L78.8004 67.7903C78.8553 67.7531 78.9194 67.7345 78.9865 67.7438L87.1227 68.8251C87.263 68.8437 87.3942 68.7445 87.4155 68.602L87.8945 65.5161C87.9189 65.3519 87.7907 65.2032 87.6291 65.2063L78.2787 65.448C78.2116 65.448 78.1445 65.4789 78.0988 65.5285L73.8187 69.9621C73.6814 70.1047 73.7393 70.3401 73.9254 70.4021L74.624 70.6345V70.6314Z" fill="white"/>
<path d="M107.931 77.1873C107.843 77.0138 107.681 76.8899 107.489 76.8589L103.044 76.0905C102.895 76.0657 102.757 75.9821 102.663 75.8581L97.9159 69.6616C97.7115 69.3952 97.3363 69.3425 97.0709 69.5439L95.2039 70.9412C94.8958 71.1705 94.8683 71.629 95.149 71.8955L101.558 78.0114C101.674 78.123 101.827 78.1818 101.986 78.1788L107.397 78.0951C107.852 78.0889 108.139 77.5994 107.931 77.1904V77.1873Z" fill="white"/>
<path d="M97.4309 63.6107C97.6383 61.8385 96.3906 60.2336 94.6487 60.0229C92.9037 59.8122 91.3234 61.0794 91.116 62.8485C90.9085 64.6207 92.1563 66.2256 93.8982 66.4363C95.6432 66.647 97.2234 65.3798 97.4309 63.6107Z" fill="white"/>
<path d="M91.4119 96C91.4119 96 91.3997 96 91.3905 96C89.8286 95.904 88.9592 94.6801 88.9225 94.6275C88.4344 93.9366 88.2972 93.2023 88.529 92.5051C88.8707 91.4765 90.0177 90.5656 91.5949 90.073C93.4559 89.4905 94.1911 86.3737 94.1972 86.3427C94.2368 86.1661 94.4138 86.0546 94.5877 86.0948C94.7615 86.1351 94.8714 86.3148 94.8317 86.4914C94.7982 86.6339 93.9989 90.011 91.7841 90.7051C90.4265 91.1295 89.4137 91.901 89.1422 92.7158C88.9805 93.2085 89.0812 93.7197 89.4503 94.2402C89.4564 94.2495 90.1855 95.2564 91.4272 95.3339C91.6071 95.3463 91.7444 95.5012 91.7322 95.684C91.7231 95.8606 91.5797 95.9938 91.4088 95.9938L91.4119 96Z" fill="white"/>
<path d="M66.616 86.9902C66.497 86.9902 66.3811 86.9221 66.3231 86.8043C65.6367 85.3791 66.253 84.0066 66.2804 83.9477C66.6343 83.1763 67.1956 82.6929 67.9034 82.5535C68.9528 82.349 70.2982 82.9129 71.5001 84.0624C72.9157 85.4194 75.948 84.5333 75.9785 84.524C76.1494 84.4744 76.3324 84.5736 76.3843 84.7471C76.4361 84.9237 76.3355 85.1065 76.1646 85.1592C76.0243 85.1994 72.7387 86.1599 71.0547 84.5457C70.0206 83.5543 68.8613 83.043 68.0285 83.2041C67.5282 83.3033 67.1377 83.6472 66.8723 84.2266C66.8662 84.239 66.3628 85.376 66.9089 86.5131C66.9882 86.6773 66.9211 86.8756 66.7594 86.9562C66.7136 86.9778 66.6648 86.9902 66.616 86.9902Z" fill="white"/>
<path d="M58.615 35.5986C58.1047 35.6711 56.7752 36.0333 56.5737 37.9124L57.0325 39.8939C57.6244 40.7333 58.555 40.908 59.2497 40.7035L68.3158 39.1098C68.4959 39.0587 68.6803 39.0502 68.8604 39.0928L84.5523 42.0074C85.0583 42.1267 86.7523 42.3312 86.9539 41.8497C87.1769 41.3256 87.1083 41.3725 86.5979 41.1296L70.2285 34.9083C70.0398 34.8188 69.8296 34.7847 69.6195 34.8188L58.6107 35.5944L58.615 35.5986Z" fill="white"/>
<path d="M43.9996 35.4495L49.1116 39.6808C49.3131 39.8129 49.5747 39.8257 49.7934 39.7106L60.442 34.0433C60.7979 33.8558 60.9008 33.4041 60.6564 33.0931L60.3605 32.7096C60.1932 32.4965 59.9059 32.407 59.64 32.4922L50.3038 35.4069C50.0679 35.4793 49.8149 35.4197 49.6433 35.2492L47.8979 33.1229C47.6534 32.88 47.2503 32.8757 46.9887 33.1058L43.9353 34.4481C43.6179 34.7293 43.6522 35.2236 44.0039 35.4537L43.9996 35.4495Z" fill="white"/>
<path d="M43.1419 25.0054C45.2604 25.1162 46.8815 26.9144 46.77 29.0151C46.6585 31.1201 44.8487 32.7309 42.7345 32.6201C40.6159 32.5093 38.9948 30.7111 39.1063 28.6103C39.2178 26.5053 41.0276 24.8946 43.1419 25.0054Z" fill="white"/>
<path d="M81.1343 48.3011C80.3066 48.3011 79.4789 48.1477 78.6855 47.8324C74.7229 46.2643 73.0075 41.2148 74.8687 36.5787C76.7257 31.9425 81.4645 29.4455 85.4315 31.0179C89.3941 32.586 91.1095 37.6355 89.2483 42.2716C87.7644 45.9788 84.4365 48.3139 81.1386 48.3054L81.1343 48.3011ZM76.0052 37.0304C74.397 41.0401 75.8036 45.378 79.1358 46.6989C82.4723 48.0199 86.4907 45.8297 88.0989 41.8199C89.7072 37.8102 88.3005 33.4723 84.9683 32.1513C81.6318 30.8304 77.6134 33.0206 76.0052 37.0304Z" fill="white"/>
<path d="M32.0388 48.9957C31.1939 48.9957 30.3619 48.8338 29.5685 48.5227C25.6059 46.9546 23.8905 41.9051 25.7517 37.269C26.6437 35.0404 28.2219 33.2337 30.1947 32.1812C32.2017 31.1074 34.376 30.9412 36.3145 31.7082C38.2529 32.4752 39.7153 34.0816 40.4315 36.2335C41.1348 38.3471 41.0276 40.7376 40.1356 42.9619C39.2436 45.1905 37.6654 46.9972 35.6926 48.0497C34.5047 48.6846 33.261 49.0042 32.0431 49L32.0388 48.9957ZM33.8443 32.4539C32.8236 32.4539 31.7815 32.7181 30.7779 33.255C29.0625 34.1754 27.6816 35.7605 26.8968 37.7207C25.2886 41.7304 26.6952 46.0683 30.0274 47.3892C31.6228 48.0199 33.4283 47.875 35.1094 46.9759C36.8248 46.0598 38.2057 44.4703 38.9905 42.5102C39.7753 40.5501 39.874 38.4536 39.2607 36.617C38.6603 34.8146 37.4552 33.4766 35.8556 32.8417C35.2123 32.586 34.5304 32.4581 33.84 32.4539H33.8443Z" fill="white"/>
<path d="M63.6284 47.973C57.4228 47.9517 34.2259 42.5145 32.4762 40.5117C32.2918 40.3029 32.2746 39.9961 32.4333 39.766C32.592 39.5359 32.8836 39.4422 33.1452 39.5359C33.3125 39.5956 49.9092 45.3609 65.198 44.253C66.0814 44.1891 66.8877 44.6195 67.2522 45.3524C67.5138 45.8808 67.4109 46.3069 67.2779 46.5711C66.952 47.2145 66.0986 47.6449 64.5933 47.9134C64.3446 47.956 64.0229 47.9773 63.6284 47.9773V47.973ZM52.6067 45.0925C57.9846 46.2259 62.7964 46.993 64.3789 46.7075C65.9356 46.4305 66.1586 46.0598 66.1801 46.0214C66.1844 46.0129 66.1972 45.9873 66.1543 45.8978C66.0128 45.6166 65.6697 45.4504 65.2923 45.476C61.0381 45.7828 56.6895 45.5697 52.611 45.0967L52.6067 45.0925Z" fill="white"/>
<path d="M82.4766 38.7519C82.4166 38.7519 82.3523 38.7348 82.3008 38.6965L73.4277 32.4411L62.1102 31.9639C61.9387 31.9553 61.81 31.8147 61.8143 31.6443C61.8229 31.4738 61.973 31.3375 62.1359 31.3502L73.5435 31.8318C73.6036 31.8318 73.6593 31.8531 73.7065 31.8872L82.6567 38.1937C82.794 38.2917 82.8283 38.4834 82.7297 38.6198C82.6696 38.705 82.5753 38.7476 82.4766 38.7476V38.7519Z" fill="white"/>
<path d="M62.642 34.3927C62.2775 34.3927 61.8958 34.2606 61.527 34.0007C61.0081 33.6385 60.5749 33.0632 60.3004 32.3815C60.026 31.6997 59.9445 30.9838 60.0689 30.3659C60.2018 29.7012 60.5578 29.2239 61.0724 29.0237C61.5827 28.8191 62.1745 28.9257 62.7321 29.3134C63.251 29.6756 63.6841 30.2509 63.9586 30.9327C64.2331 31.6144 64.3145 32.3303 64.1902 32.9482C64.0572 33.6129 63.7013 34.0902 63.1866 34.2904C63.0151 34.3586 62.8307 34.3927 62.6463 34.3927H62.642ZM61.6085 29.535C61.5012 29.535 61.394 29.552 61.2997 29.5904C60.9866 29.714 60.7636 30.0336 60.6735 30.4895C60.5706 30.9923 60.6435 31.5846 60.8708 32.1599C61.1024 32.7351 61.4584 33.2124 61.8829 33.5064C62.2646 33.7748 62.6463 33.8515 62.9594 33.728C63.2724 33.6044 63.4954 33.2848 63.5855 32.8289C63.6884 32.3261 63.6155 31.7338 63.3882 31.1628C63.1566 30.5875 62.8007 30.1103 62.3761 29.8162C62.1145 29.633 61.8486 29.5393 61.6085 29.535Z" fill="white"/>
</svg>
