<svg width="121" height="120" viewBox="0 0 121 120" fill="none" xmlns="http://www.w3.org/2000/svg">
<circle cx="60.9268" cy="60" r="60" fill="#607989"/>
<path d="M34.0359 90.3781C34.1741 90.2651 34.2553 90.0875 34.2553 89.91L33.8897 79.417C33.8897 79.2717 33.9303 79.1345 34.0278 79.0215L45.7215 65.4128C45.9247 65.1788 45.9003 64.8236 45.6646 64.6138L40.6426 60.126C40.3744 59.8838 39.9519 59.9484 39.765 60.2551L29.0139 77.6251C28.9326 77.7542 28.9082 77.9076 28.9407 78.0529L31.85 91.0642C31.9393 91.4758 32.4432 91.6534 32.7764 91.3871L34.0359 90.3862V90.3781Z" fill="white"/>
<path d="M60.3813 50.8195C60.3813 46.9936 57.2527 43.886 53.4009 43.886C49.549 43.886 46.4204 46.9936 46.4204 50.8195C46.4204 54.6454 49.549 57.7529 53.4009 57.7529C57.2527 57.7529 60.3813 54.6454 60.3813 50.8195Z" fill="white"/>
<path d="M60.8608 60.5134L64.7858 64.9043C65.1271 65.2918 65.7528 65.2433 66.0291 64.8075L76.707 48.3012C76.7802 48.1962 76.8208 48.0671 76.8289 47.938L77.9829 33.1913C78.0154 32.7392 77.6578 32.3518 77.2028 32.3518H76.3657C76.0082 32.3518 75.6913 32.594 75.6019 32.941L71.9125 47.7523C71.88 47.8815 71.815 48.0025 71.7175 48.0994L60.8608 59.448C60.5845 59.7385 60.5764 60.1986 60.8445 60.4973L60.8608 60.5134Z" fill="white"/>
<path d="M87.7588 34.0872C84.557 34.0872 81.9566 31.5043 81.9566 28.3241C81.9566 25.1439 84.557 22.561 87.7588 22.561C90.9606 22.561 93.561 25.1439 93.561 28.3241C93.561 31.5043 90.9606 34.0872 87.7588 34.0872ZM87.7588 24.7969C85.8004 24.7969 84.2076 26.3789 84.2076 28.3241C84.2076 30.2694 85.8004 31.8514 87.7588 31.8514C89.7172 31.8514 91.31 30.2694 91.31 28.3241C91.31 26.3789 89.7172 24.7969 87.7588 24.7969Z" fill="white"/>
<path d="M61.3403 100.54L48.6876 96.3268C47.5662 95.9556 47.0461 94.5027 47.5256 93.0901L47.9563 91.8148C48.3951 90.5234 49.5978 87.9244 50.6136 88.2634L61.6328 93.7762C63.4775 94.3897 64.3389 96.7788 63.5506 99.1034C63.1849 100.185 62.1935 100.831 61.3403 100.54Z" fill="white"/>
<path d="M78.4705 95.0677L63.2093 93.5987C61.8603 93.4695 60.8771 92.1619 61.0233 90.6768L61.1533 89.3369C61.2834 87.9809 61.9091 85.1881 63.1443 85.3011L76.9346 88.3844C79.1612 88.6024 80.7702 90.7494 80.5345 93.1951C80.4208 94.3332 79.4944 95.1645 78.4623 95.0677H78.4705Z" fill="white"/>
</svg>
